G04 #@! TF.FileFunction,Legend,Bot*
%FSLAX46Y46*%
G04 Gerber Fmt 4.6, Leading zero omitted, Abs format (unit mm)*
G04 Created by KiCad (PCBNEW 4.0.6) date 11/20/17 19:22:43*
%MOMM*%
%LPD*%
G01*
G04 APERTURE LIST*
%ADD10C,0.100000*%
%ADD11C,0.508000*%
%ADD12C,0.300000*%
%ADD13C,0.190500*%
G04 APERTURE END LIST*
D10*
D11*
X142602857Y-90756619D02*
X144719523Y-87732810D01*
X146231428Y-90756619D02*
X146231428Y-84406619D01*
X143812381Y-84406619D01*
X143207619Y-84709000D01*
X142905238Y-85011381D01*
X142602857Y-85616143D01*
X142602857Y-86523286D01*
X142905238Y-87128048D01*
X143207619Y-87430429D01*
X143812381Y-87732810D01*
X146231428Y-87732810D01*
X139881428Y-87430429D02*
X137764762Y-87430429D01*
X136857619Y-90756619D02*
X139881428Y-90756619D01*
X139881428Y-84406619D01*
X136857619Y-84406619D01*
X135043333Y-84406619D02*
X132926666Y-90756619D01*
X130810000Y-84406619D01*
X124157619Y-88942333D02*
X121133810Y-88942333D01*
X124762381Y-90756619D02*
X122645714Y-84406619D01*
X120529048Y-90756619D01*
X117202857Y-84406619D02*
X116598096Y-84406619D01*
X115993334Y-84709000D01*
X115690953Y-85011381D01*
X115388572Y-85616143D01*
X115086191Y-86825667D01*
X115086191Y-88337571D01*
X115388572Y-89547095D01*
X115690953Y-90151857D01*
X115993334Y-90454238D01*
X116598096Y-90756619D01*
X117202857Y-90756619D01*
X117807619Y-90454238D01*
X118110000Y-90151857D01*
X118412381Y-89547095D01*
X118714762Y-88337571D01*
X118714762Y-86825667D01*
X118412381Y-85616143D01*
X118110000Y-85011381D01*
X117807619Y-84709000D01*
X117202857Y-84406619D01*
D12*
X142276285Y-109076048D02*
X143485809Y-109076048D01*
X143485809Y-106536048D01*
X141429619Y-109076048D02*
X141429619Y-107382714D01*
X141429619Y-106536048D02*
X141550571Y-106657000D01*
X141429619Y-106777952D01*
X141308667Y-106657000D01*
X141429619Y-106536048D01*
X141429619Y-106777952D01*
X139131524Y-107382714D02*
X139131524Y-109438905D01*
X139252476Y-109680810D01*
X139373428Y-109801762D01*
X139615333Y-109922714D01*
X139978190Y-109922714D01*
X140220095Y-109801762D01*
X139131524Y-108955095D02*
X139373428Y-109076048D01*
X139857238Y-109076048D01*
X140099143Y-108955095D01*
X140220095Y-108834143D01*
X140341047Y-108592238D01*
X140341047Y-107866524D01*
X140220095Y-107624619D01*
X140099143Y-107503667D01*
X139857238Y-107382714D01*
X139373428Y-107382714D01*
X139131524Y-107503667D01*
X137922000Y-109076048D02*
X137922000Y-106536048D01*
X136833429Y-109076048D02*
X136833429Y-107745571D01*
X136954381Y-107503667D01*
X137196286Y-107382714D01*
X137559143Y-107382714D01*
X137801048Y-107503667D01*
X137922000Y-107624619D01*
X135986762Y-107382714D02*
X135019143Y-107382714D01*
X135623905Y-106536048D02*
X135623905Y-108713190D01*
X135502953Y-108955095D01*
X135261048Y-109076048D01*
X135019143Y-109076048D01*
X130785810Y-108834143D02*
X130906762Y-108955095D01*
X131269619Y-109076048D01*
X131511524Y-109076048D01*
X131874381Y-108955095D01*
X132116286Y-108713190D01*
X132237238Y-108471286D01*
X132358190Y-107987476D01*
X132358190Y-107624619D01*
X132237238Y-107140810D01*
X132116286Y-106898905D01*
X131874381Y-106657000D01*
X131511524Y-106536048D01*
X131269619Y-106536048D01*
X130906762Y-106657000D01*
X130785810Y-106777952D01*
X129334381Y-109076048D02*
X129576286Y-108955095D01*
X129697238Y-108834143D01*
X129818190Y-108592238D01*
X129818190Y-107866524D01*
X129697238Y-107624619D01*
X129576286Y-107503667D01*
X129334381Y-107382714D01*
X128971524Y-107382714D01*
X128729619Y-107503667D01*
X128608667Y-107624619D01*
X128487714Y-107866524D01*
X128487714Y-108592238D01*
X128608667Y-108834143D01*
X128729619Y-108955095D01*
X128971524Y-109076048D01*
X129334381Y-109076048D01*
X127399143Y-107382714D02*
X127399143Y-109076048D01*
X127399143Y-107624619D02*
X127278191Y-107503667D01*
X127036286Y-107382714D01*
X126673429Y-107382714D01*
X126431524Y-107503667D01*
X126310572Y-107745571D01*
X126310572Y-109076048D01*
X125463905Y-107382714D02*
X124496286Y-107382714D01*
X125101048Y-106536048D02*
X125101048Y-108713190D01*
X124980096Y-108955095D01*
X124738191Y-109076048D01*
X124496286Y-109076048D01*
X123649619Y-109076048D02*
X123649619Y-107382714D01*
X123649619Y-107866524D02*
X123528667Y-107624619D01*
X123407714Y-107503667D01*
X123165810Y-107382714D01*
X122923905Y-107382714D01*
X121714381Y-109076048D02*
X121956286Y-108955095D01*
X122077238Y-108834143D01*
X122198190Y-108592238D01*
X122198190Y-107866524D01*
X122077238Y-107624619D01*
X121956286Y-107503667D01*
X121714381Y-107382714D01*
X121351524Y-107382714D01*
X121109619Y-107503667D01*
X120988667Y-107624619D01*
X120867714Y-107866524D01*
X120867714Y-108592238D01*
X120988667Y-108834143D01*
X121109619Y-108955095D01*
X121351524Y-109076048D01*
X121714381Y-109076048D01*
X119416286Y-109076048D02*
X119658191Y-108955095D01*
X119779143Y-108713190D01*
X119779143Y-106536048D01*
X118085810Y-109076048D02*
X118327715Y-108955095D01*
X118448667Y-108713190D01*
X118448667Y-106536048D01*
X116150572Y-108955095D02*
X116392477Y-109076048D01*
X116876286Y-109076048D01*
X117118191Y-108955095D01*
X117239143Y-108713190D01*
X117239143Y-107745571D01*
X117118191Y-107503667D01*
X116876286Y-107382714D01*
X116392477Y-107382714D01*
X116150572Y-107503667D01*
X116029620Y-107745571D01*
X116029620Y-107987476D01*
X117239143Y-108229381D01*
X114941048Y-109076048D02*
X114941048Y-107382714D01*
X114941048Y-107866524D02*
X114820096Y-107624619D01*
X114699143Y-107503667D01*
X114457239Y-107382714D01*
X114215334Y-107382714D01*
X150863903Y-112460333D02*
X149654380Y-112460333D01*
X151105808Y-113186048D02*
X150259142Y-110646048D01*
X149412475Y-113186048D01*
X148565808Y-111492714D02*
X148565808Y-113186048D01*
X148565808Y-111734619D02*
X148444856Y-111613667D01*
X148202951Y-111492714D01*
X147840094Y-111492714D01*
X147598189Y-111613667D01*
X147477237Y-111855571D01*
X147477237Y-113186048D01*
X145179142Y-113186048D02*
X145179142Y-110646048D01*
X145179142Y-113065095D02*
X145421046Y-113186048D01*
X145904856Y-113186048D01*
X146146761Y-113065095D01*
X146267713Y-112944143D01*
X146388665Y-112702238D01*
X146388665Y-111976524D01*
X146267713Y-111734619D01*
X146146761Y-111613667D01*
X145904856Y-111492714D01*
X145421046Y-111492714D01*
X145179142Y-111613667D01*
X144211523Y-111492714D02*
X143606761Y-113186048D01*
X143001999Y-111492714D02*
X143606761Y-113186048D01*
X143848666Y-113790810D01*
X143969618Y-113911762D01*
X144211523Y-114032714D01*
X139373428Y-110646048D02*
X139373428Y-112460333D01*
X139494380Y-112823190D01*
X139736285Y-113065095D01*
X140099142Y-113186048D01*
X140341047Y-113186048D01*
X137801047Y-113186048D02*
X138042952Y-113065095D01*
X138163904Y-112944143D01*
X138284856Y-112702238D01*
X138284856Y-111976524D01*
X138163904Y-111734619D01*
X138042952Y-111613667D01*
X137801047Y-111492714D01*
X137438190Y-111492714D01*
X137196285Y-111613667D01*
X137075333Y-111734619D01*
X136954380Y-111976524D01*
X136954380Y-112702238D01*
X137075333Y-112944143D01*
X137196285Y-113065095D01*
X137438190Y-113186048D01*
X137801047Y-113186048D01*
X135986761Y-113065095D02*
X135744857Y-113186048D01*
X135261047Y-113186048D01*
X135019142Y-113065095D01*
X134898190Y-112823190D01*
X134898190Y-112702238D01*
X135019142Y-112460333D01*
X135261047Y-112339381D01*
X135623904Y-112339381D01*
X135865809Y-112218429D01*
X135986761Y-111976524D01*
X135986761Y-111855571D01*
X135865809Y-111613667D01*
X135623904Y-111492714D01*
X135261047Y-111492714D01*
X135019142Y-111613667D01*
X132842000Y-113065095D02*
X133083905Y-113186048D01*
X133567714Y-113186048D01*
X133809619Y-113065095D01*
X133930571Y-112823190D01*
X133930571Y-111855571D01*
X133809619Y-111613667D01*
X133567714Y-111492714D01*
X133083905Y-111492714D01*
X132842000Y-111613667D01*
X132721048Y-111855571D01*
X132721048Y-112097476D01*
X133930571Y-112339381D01*
X131632476Y-111492714D02*
X131632476Y-114032714D01*
X131632476Y-111613667D02*
X131390571Y-111492714D01*
X130906762Y-111492714D01*
X130664857Y-111613667D01*
X130543905Y-111734619D01*
X130422952Y-111976524D01*
X130422952Y-112702238D01*
X130543905Y-112944143D01*
X130664857Y-113065095D01*
X130906762Y-113186048D01*
X131390571Y-113186048D01*
X131632476Y-113065095D01*
X129334381Y-113186048D02*
X129334381Y-110646048D01*
X128245810Y-113186048D02*
X128245810Y-111855571D01*
X128366762Y-111613667D01*
X128608667Y-111492714D01*
X128971524Y-111492714D01*
X129213429Y-111613667D01*
X129334381Y-111734619D01*
X127157238Y-113065095D02*
X126915334Y-113186048D01*
X126431524Y-113186048D01*
X126189619Y-113065095D01*
X126068667Y-112823190D01*
X126068667Y-112702238D01*
X126189619Y-112460333D01*
X126431524Y-112339381D01*
X126794381Y-112339381D01*
X127036286Y-112218429D01*
X127157238Y-111976524D01*
X127157238Y-111855571D01*
X127036286Y-111613667D01*
X126794381Y-111492714D01*
X126431524Y-111492714D01*
X126189619Y-111613667D01*
X124617239Y-113186048D02*
X124859144Y-113065095D01*
X124980096Y-112944143D01*
X125101048Y-112702238D01*
X125101048Y-111976524D01*
X124980096Y-111734619D01*
X124859144Y-111613667D01*
X124617239Y-111492714D01*
X124254382Y-111492714D01*
X124012477Y-111613667D01*
X123891525Y-111734619D01*
X123770572Y-111976524D01*
X123770572Y-112702238D01*
X123891525Y-112944143D01*
X124012477Y-113065095D01*
X124254382Y-113186048D01*
X124617239Y-113186048D01*
X122682001Y-111492714D02*
X122682001Y-113186048D01*
X122682001Y-111734619D02*
X122561049Y-111613667D01*
X122319144Y-111492714D01*
X121956287Y-111492714D01*
X121714382Y-111613667D01*
X121593430Y-111855571D01*
X121593430Y-113186048D01*
X117118192Y-113186048D02*
X118569620Y-113186048D01*
X117843906Y-113186048D02*
X117843906Y-110646048D01*
X118085811Y-111008905D01*
X118327716Y-111250810D01*
X118569620Y-111371762D01*
X114699144Y-113186048D02*
X116150572Y-113186048D01*
X115424858Y-113186048D02*
X115424858Y-110646048D01*
X115666763Y-111008905D01*
X115908668Y-111250810D01*
X116150572Y-111371762D01*
X111796286Y-110525095D02*
X113973429Y-113790810D01*
X109619144Y-113186048D02*
X111070572Y-113186048D01*
X110344858Y-113186048D02*
X110344858Y-110646048D01*
X110586763Y-111008905D01*
X110828668Y-111250810D01*
X111070572Y-111371762D01*
X108772477Y-110646048D02*
X107079144Y-110646048D01*
X108167715Y-113186048D01*
D13*
X171268572Y-77343000D02*
X171341143Y-77306714D01*
X171450000Y-77306714D01*
X171558857Y-77343000D01*
X171631429Y-77415571D01*
X171667714Y-77488143D01*
X171704000Y-77633286D01*
X171704000Y-77742143D01*
X171667714Y-77887286D01*
X171631429Y-77959857D01*
X171558857Y-78032429D01*
X171450000Y-78068714D01*
X171377429Y-78068714D01*
X171268572Y-78032429D01*
X171232286Y-77996143D01*
X171232286Y-77742143D01*
X171377429Y-77742143D01*
X170905714Y-78068714D02*
X170905714Y-77306714D01*
X170470286Y-78068714D01*
X170470286Y-77306714D01*
X170107428Y-78068714D02*
X170107428Y-77306714D01*
X169926000Y-77306714D01*
X169817143Y-77343000D01*
X169744571Y-77415571D01*
X169708286Y-77488143D01*
X169672000Y-77633286D01*
X169672000Y-77742143D01*
X169708286Y-77887286D01*
X169744571Y-77959857D01*
X169817143Y-78032429D01*
X169926000Y-78068714D01*
X170107428Y-78068714D01*
X170815000Y-75528714D02*
X171069000Y-75165857D01*
X171250428Y-75528714D02*
X171250428Y-74766714D01*
X170960143Y-74766714D01*
X170887571Y-74803000D01*
X170851286Y-74839286D01*
X170815000Y-74911857D01*
X170815000Y-75020714D01*
X170851286Y-75093286D01*
X170887571Y-75129571D01*
X170960143Y-75165857D01*
X171250428Y-75165857D01*
X170561000Y-74766714D02*
X170053000Y-75528714D01*
X170053000Y-74766714D02*
X170561000Y-75528714D01*
X171268571Y-72226714D02*
X170833142Y-72226714D01*
X171050856Y-72988714D02*
X171050856Y-72226714D01*
X170651714Y-72226714D02*
X170143714Y-72988714D01*
X170143714Y-72226714D02*
X170651714Y-72988714D01*
X171704000Y-69686714D02*
X171450000Y-70448714D01*
X171196000Y-69686714D01*
X170506571Y-70376143D02*
X170542857Y-70412429D01*
X170651714Y-70448714D01*
X170724285Y-70448714D01*
X170833142Y-70412429D01*
X170905714Y-70339857D01*
X170941999Y-70267286D01*
X170978285Y-70122143D01*
X170978285Y-70013286D01*
X170941999Y-69868143D01*
X170905714Y-69795571D01*
X170833142Y-69723000D01*
X170724285Y-69686714D01*
X170651714Y-69686714D01*
X170542857Y-69723000D01*
X170506571Y-69759286D01*
X169744571Y-70376143D02*
X169780857Y-70412429D01*
X169889714Y-70448714D01*
X169962285Y-70448714D01*
X170071142Y-70412429D01*
X170143714Y-70339857D01*
X170179999Y-70267286D01*
X170216285Y-70122143D01*
X170216285Y-70013286D01*
X170179999Y-69868143D01*
X170143714Y-69795571D01*
X170071142Y-69723000D01*
X169962285Y-69686714D01*
X169889714Y-69686714D01*
X169780857Y-69723000D01*
X169744571Y-69759286D01*
D12*
X166933143Y-74846571D02*
X166933143Y-73346571D01*
X166576000Y-73346571D01*
X166361715Y-73418000D01*
X166218857Y-73560857D01*
X166147429Y-73703714D01*
X166076000Y-73989429D01*
X166076000Y-74203714D01*
X166147429Y-74489429D01*
X166218857Y-74632286D01*
X166361715Y-74775143D01*
X166576000Y-74846571D01*
X166933143Y-74846571D01*
X165433143Y-74060857D02*
X164933143Y-74060857D01*
X164718857Y-74846571D02*
X165433143Y-74846571D01*
X165433143Y-73346571D01*
X164718857Y-73346571D01*
X163576000Y-74060857D02*
X163361714Y-74132286D01*
X163290286Y-74203714D01*
X163218857Y-74346571D01*
X163218857Y-74560857D01*
X163290286Y-74703714D01*
X163361714Y-74775143D01*
X163504572Y-74846571D01*
X164076000Y-74846571D01*
X164076000Y-73346571D01*
X163576000Y-73346571D01*
X163433143Y-73418000D01*
X163361714Y-73489429D01*
X163290286Y-73632286D01*
X163290286Y-73775143D01*
X163361714Y-73918000D01*
X163433143Y-73989429D01*
X163576000Y-74060857D01*
X164076000Y-74060857D01*
X162576000Y-73346571D02*
X162576000Y-74560857D01*
X162504572Y-74703714D01*
X162433143Y-74775143D01*
X162290286Y-74846571D01*
X162004572Y-74846571D01*
X161861714Y-74775143D01*
X161790286Y-74703714D01*
X161718857Y-74560857D01*
X161718857Y-73346571D01*
X160218857Y-73418000D02*
X160361714Y-73346571D01*
X160576000Y-73346571D01*
X160790285Y-73418000D01*
X160933143Y-73560857D01*
X161004571Y-73703714D01*
X161076000Y-73989429D01*
X161076000Y-74203714D01*
X161004571Y-74489429D01*
X160933143Y-74632286D01*
X160790285Y-74775143D01*
X160576000Y-74846571D01*
X160433143Y-74846571D01*
X160218857Y-74775143D01*
X160147428Y-74703714D01*
X160147428Y-74203714D01*
X160433143Y-74203714D01*
M02*
