G04 #@! TF.FileFunction,Copper,L1,Top,Signal*
%FSLAX46Y46*%
G04 Gerber Fmt 4.6, Leading zero omitted, Abs format (unit mm)*
G04 Created by KiCad (PCBNEW 4.0.6) date 11/20/17 19:22:43*
%MOMM*%
%LPD*%
G01*
G04 APERTURE LIST*
%ADD10C,0.100000*%
%ADD11R,0.800000X2.200000*%
%ADD12R,5.800000X6.400000*%
%ADD13R,2.750000X3.050000*%
%ADD14R,1.250000X1.500000*%
%ADD15R,1.500000X1.250000*%
%ADD16R,3.500000X1.600000*%
%ADD17R,4.000000X2.500000*%
%ADD18R,0.800000X0.900000*%
%ADD19R,3.960000X1.980000*%
%ADD20O,3.960000X1.980000*%
%ADD21C,0.787400*%
%ADD22R,1.700000X1.700000*%
%ADD23O,1.700000X1.700000*%
%ADD24R,1.300000X1.500000*%
%ADD25R,1.500000X1.300000*%
%ADD26R,12.700000X12.700000*%
%ADD27R,1.000000X1.000000*%
%ADD28R,1.500000X0.550000*%
%ADD29R,0.550000X1.500000*%
%ADD30R,2.000000X1.700000*%
%ADD31R,1.550000X0.600000*%
%ADD32C,8.600000*%
%ADD33C,0.900000*%
%ADD34C,1.270000*%
%ADD35C,0.762000*%
%ADD36C,1.270000*%
%ADD37C,0.254000*%
G04 APERTURE END LIST*
D10*
D11*
X107955000Y-94335000D03*
X109095000Y-94335000D03*
X111375000Y-94335000D03*
X112515000Y-94335000D03*
D12*
X110235000Y-88035000D03*
D13*
X111760000Y-86360000D03*
X108710000Y-89710000D03*
X108710000Y-86360000D03*
X111760000Y-89710000D03*
D14*
X151003000Y-97389000D03*
X151003000Y-94889000D03*
D15*
X90190000Y-68580000D03*
X92690000Y-68580000D03*
D16*
X94140000Y-73660000D03*
X88740000Y-73660000D03*
D15*
X92690000Y-127000000D03*
X90190000Y-127000000D03*
D17*
X88390000Y-119380000D03*
X94490000Y-119380000D03*
D15*
X106720000Y-101600000D03*
X109220000Y-101600000D03*
D18*
X103190000Y-79740000D03*
X105090000Y-79740000D03*
X104140000Y-77740000D03*
X103190000Y-120380000D03*
X105090000Y-120380000D03*
X104140000Y-118380000D03*
X120970000Y-79740000D03*
X122870000Y-79740000D03*
X121920000Y-77740000D03*
X120970000Y-120380000D03*
X122870000Y-120380000D03*
X121920000Y-118380000D03*
X138750000Y-79740000D03*
X140650000Y-79740000D03*
X139700000Y-77740000D03*
X138750000Y-120380000D03*
X140650000Y-120380000D03*
X139700000Y-118380000D03*
X156530000Y-79740000D03*
X158430000Y-79740000D03*
X157480000Y-77740000D03*
X156530000Y-120380000D03*
X158430000Y-120380000D03*
X157480000Y-118380000D03*
D19*
X91440000Y-81280000D03*
D20*
X91440000Y-86280000D03*
D19*
X91440000Y-93980000D03*
D20*
X91440000Y-98980000D03*
X91440000Y-108980000D03*
X91440000Y-103980000D03*
D21*
X172085000Y-86360000D03*
X170815000Y-86360000D03*
X172085000Y-85090000D03*
X170815000Y-85090000D03*
X172085000Y-83820000D03*
X170815000Y-83820000D03*
D22*
X173990000Y-69850000D03*
D23*
X173990000Y-72390000D03*
X173990000Y-74930000D03*
X173990000Y-77470000D03*
D24*
X133350000Y-81280000D03*
X133350000Y-78580000D03*
X153670000Y-81360000D03*
X153670000Y-78660000D03*
D25*
X165100000Y-116840000D03*
X162400000Y-116840000D03*
X129620000Y-119380000D03*
X126920000Y-119380000D03*
X165100000Y-119380000D03*
X162400000Y-119380000D03*
X170100000Y-91440000D03*
X172800000Y-91440000D03*
D24*
X115570000Y-81440000D03*
X115570000Y-78740000D03*
X151130000Y-81440000D03*
X151130000Y-78740000D03*
D25*
X111840000Y-119380000D03*
X109140000Y-119380000D03*
X147400000Y-119380000D03*
X144700000Y-119380000D03*
X104140000Y-91440000D03*
X101440000Y-91440000D03*
D24*
X101600000Y-110650000D03*
X101600000Y-107950000D03*
X101600000Y-102870000D03*
X101600000Y-105570000D03*
X114300000Y-113190000D03*
X114300000Y-110490000D03*
X114300000Y-105250000D03*
X114300000Y-107950000D03*
D25*
X144700000Y-116840000D03*
X147400000Y-116840000D03*
X109060000Y-116840000D03*
X111760000Y-116840000D03*
X126920000Y-77470000D03*
X129620000Y-77470000D03*
X162480000Y-77470000D03*
X165180000Y-77470000D03*
X126920000Y-80010000D03*
X129620000Y-80010000D03*
X162480000Y-80010000D03*
X165180000Y-80010000D03*
D24*
X135890000Y-119380000D03*
X135890000Y-116680000D03*
X100330000Y-119380000D03*
X100330000Y-116680000D03*
X153670000Y-119380000D03*
X153670000Y-116680000D03*
X118110000Y-119380000D03*
X118110000Y-116680000D03*
D25*
X126840000Y-116840000D03*
X129540000Y-116840000D03*
D26*
X104140000Y-68580000D03*
D27*
X104140000Y-68580000D03*
D26*
X104140000Y-129540000D03*
D27*
X104140000Y-129540000D03*
D26*
X121920000Y-68580000D03*
D27*
X121920000Y-68580000D03*
D26*
X121920000Y-129540000D03*
D27*
X121920000Y-129540000D03*
D26*
X139700000Y-68580000D03*
D27*
X139700000Y-68580000D03*
D26*
X139700000Y-129540000D03*
D27*
X139700000Y-129540000D03*
D26*
X157480000Y-68580000D03*
D27*
X157480000Y-68580000D03*
D26*
X157480000Y-129540000D03*
D27*
X157480000Y-129540000D03*
D28*
X135016000Y-92139000D03*
X135016000Y-92939000D03*
X135016000Y-93739000D03*
X135016000Y-94539000D03*
X135016000Y-95339000D03*
X135016000Y-96139000D03*
X135016000Y-96939000D03*
X135016000Y-97739000D03*
X135016000Y-98539000D03*
X135016000Y-99339000D03*
X135016000Y-100139000D03*
D29*
X136716000Y-101839000D03*
X137516000Y-101839000D03*
X138316000Y-101839000D03*
X139116000Y-101839000D03*
X139916000Y-101839000D03*
X140716000Y-101839000D03*
X141516000Y-101839000D03*
X142316000Y-101839000D03*
X143116000Y-101839000D03*
X143916000Y-101839000D03*
X144716000Y-101839000D03*
D28*
X146416000Y-100139000D03*
X146416000Y-99339000D03*
X146416000Y-98539000D03*
X146416000Y-97739000D03*
X146416000Y-96939000D03*
X146416000Y-96139000D03*
X146416000Y-95339000D03*
X146416000Y-94539000D03*
X146416000Y-93739000D03*
X146416000Y-92939000D03*
X146416000Y-92139000D03*
D29*
X144716000Y-90439000D03*
X143916000Y-90439000D03*
X143116000Y-90439000D03*
X142316000Y-90439000D03*
X141516000Y-90439000D03*
X140716000Y-90439000D03*
X139916000Y-90439000D03*
X139116000Y-90439000D03*
X138316000Y-90439000D03*
X137516000Y-90439000D03*
X136716000Y-90439000D03*
D14*
X130302000Y-97790000D03*
X130302000Y-95290000D03*
D25*
X109140000Y-77470000D03*
X111840000Y-77470000D03*
X144700000Y-77470000D03*
X147400000Y-77470000D03*
X109140000Y-80010000D03*
X111840000Y-80010000D03*
X144700000Y-80010000D03*
X147400000Y-80010000D03*
X101440000Y-88900000D03*
X104140000Y-88900000D03*
D30*
X105410000Y-97790000D03*
X101410000Y-97790000D03*
D31*
X105250000Y-104775000D03*
X105250000Y-106045000D03*
X105250000Y-107315000D03*
X105250000Y-108585000D03*
X110650000Y-108585000D03*
X110650000Y-107315000D03*
X110650000Y-106045000D03*
X110650000Y-104775000D03*
D32*
X91440000Y-62230000D03*
D33*
X94665000Y-62230000D03*
X93720419Y-64510419D03*
X91440000Y-65455000D03*
X89159581Y-64510419D03*
X88215000Y-62230000D03*
X89159581Y-59949581D03*
X91440000Y-59005000D03*
X93720419Y-59949581D03*
D32*
X91440000Y-137160000D03*
D33*
X94665000Y-137160000D03*
X93720419Y-139440419D03*
X91440000Y-140385000D03*
X89159581Y-139440419D03*
X88215000Y-137160000D03*
X89159581Y-134879581D03*
X91440000Y-133935000D03*
X93720419Y-134879581D03*
D32*
X170180000Y-62230000D03*
D33*
X173405000Y-62230000D03*
X172460419Y-64510419D03*
X170180000Y-65455000D03*
X167899581Y-64510419D03*
X166955000Y-62230000D03*
X167899581Y-59949581D03*
X170180000Y-59005000D03*
X172460419Y-59949581D03*
D32*
X170180000Y-137160000D03*
D33*
X173405000Y-137160000D03*
X172460419Y-139440419D03*
X170180000Y-140385000D03*
X167899581Y-139440419D03*
X166955000Y-137160000D03*
X167899581Y-134879581D03*
X170180000Y-133935000D03*
X172460419Y-134879581D03*
D34*
X94742000Y-67564000D03*
X101600000Y-112522000D03*
X112776000Y-113030000D03*
X157480000Y-116840000D03*
X139700000Y-116840000D03*
X121920000Y-117094000D03*
X104140000Y-117094000D03*
X156210000Y-77216000D03*
X138176000Y-77216000D03*
X120396000Y-77216000D03*
X102870000Y-77216000D03*
X126238000Y-96012000D03*
X152654000Y-94742000D03*
X99314000Y-97790000D03*
X99822000Y-92964000D03*
X93726000Y-121412000D03*
X86868000Y-77978000D03*
D35*
X174885082Y-86042499D03*
X138684000Y-81026000D03*
X143256000Y-81534000D03*
X114808000Y-99060000D03*
X114808000Y-100584000D03*
X173990000Y-94488000D03*
X147574000Y-105156000D03*
X165100000Y-91440000D03*
X140716000Y-103378000D03*
X139912896Y-103913403D03*
X175260000Y-91440000D03*
X148572242Y-93170549D03*
X149098000Y-93980000D03*
X143256000Y-99568000D03*
X143002000Y-83312000D03*
X144780000Y-99314000D03*
X144780000Y-86360000D03*
X138430000Y-93218000D03*
X165100000Y-114300000D03*
X128270000Y-93980000D03*
X128270000Y-109474000D03*
X139192000Y-95504000D03*
X163576000Y-113538000D03*
X141991098Y-85084902D03*
X142240000Y-99822000D03*
X144018000Y-100330000D03*
X144780000Y-85090000D03*
X119380000Y-92964000D03*
X119380000Y-113030000D03*
X136906000Y-94742000D03*
X145542000Y-112522000D03*
X137668000Y-92202000D03*
X147320000Y-111760000D03*
X118364000Y-88138000D03*
X118110000Y-113030000D03*
X139954000Y-91948000D03*
X139954000Y-84836000D03*
X129540000Y-88900000D03*
X129540000Y-114554000D03*
X110236000Y-94742000D03*
X110236000Y-98044000D03*
X95758000Y-97282000D03*
X101854000Y-93726000D03*
X103929176Y-101875781D03*
X116078000Y-101092000D03*
X106371092Y-94306975D03*
X110236000Y-93726000D03*
X140970000Y-92202000D03*
X140970000Y-82550000D03*
D36*
X94742000Y-67564000D02*
X93706000Y-67564000D01*
X93706000Y-67564000D02*
X92690000Y-68580000D01*
X162560000Y-90932000D02*
X159512000Y-93980000D01*
X159512000Y-93980000D02*
X156103000Y-97389000D01*
X170100000Y-91440000D02*
X168080000Y-91440000D01*
X168080000Y-91440000D02*
X165540000Y-93980000D01*
X165540000Y-93980000D02*
X159512000Y-93980000D01*
X156103000Y-97389000D02*
X151003000Y-97389000D01*
X162560000Y-86614000D02*
X162560000Y-90932000D01*
X169418000Y-79756000D02*
X162560000Y-86614000D01*
X169418000Y-72302000D02*
X169418000Y-79756000D01*
X173990000Y-69850000D02*
X171870000Y-69850000D01*
X171870000Y-69850000D02*
X169418000Y-72302000D01*
X108966000Y-96520000D02*
X114554000Y-96520000D01*
X114554000Y-96520000D02*
X116078000Y-94996000D01*
X108458000Y-97028000D02*
X108966000Y-96520000D01*
X108458000Y-98943000D02*
X108458000Y-97028000D01*
X109220000Y-101600000D02*
X109220000Y-99705000D01*
X109220000Y-99705000D02*
X108458000Y-98943000D01*
X116078000Y-94996000D02*
X118872000Y-97790000D01*
X118872000Y-97790000D02*
X130302000Y-97790000D01*
X116078000Y-89708000D02*
X116078000Y-94996000D01*
X110235000Y-88035000D02*
X114405000Y-88035000D01*
X114405000Y-88035000D02*
X116078000Y-89708000D01*
X91440000Y-81280000D02*
X99310000Y-81280000D01*
X101596000Y-83566000D02*
X106172000Y-83566000D01*
X99310000Y-81280000D02*
X101596000Y-83566000D01*
X106172000Y-83566000D02*
X110235000Y-87629000D01*
X110235000Y-87629000D02*
X110235000Y-88035000D01*
D37*
X91440000Y-81280000D02*
X94724000Y-81280000D01*
X94724000Y-81280000D02*
X101440000Y-87996000D01*
X101440000Y-87996000D02*
X101440000Y-88900000D01*
D36*
X94140000Y-73660000D02*
X94140000Y-70030000D01*
X94140000Y-70030000D02*
X92690000Y-68580000D01*
X91440000Y-81280000D02*
X91440000Y-76360000D01*
X91440000Y-76360000D02*
X94140000Y-73660000D01*
D37*
X109220000Y-101600000D02*
X109220000Y-103820000D01*
X109220000Y-103820000D02*
X110175000Y-104775000D01*
X110175000Y-104775000D02*
X110650000Y-104775000D01*
X170815000Y-86360000D02*
X170815000Y-86916775D01*
X170815000Y-86916775D02*
X170427651Y-87304124D01*
X170427651Y-87304124D02*
X170427651Y-90208349D01*
X170427651Y-90208349D02*
X170100000Y-90536000D01*
X170100000Y-90536000D02*
X170100000Y-91440000D01*
X132423000Y-96939000D02*
X131572000Y-97790000D01*
X131572000Y-97790000D02*
X130302000Y-97790000D01*
X135016000Y-96939000D02*
X132423000Y-96939000D01*
X146416000Y-96139000D02*
X149878000Y-96139000D01*
X149878000Y-96139000D02*
X151003000Y-97264000D01*
X151003000Y-97264000D02*
X151003000Y-97389000D01*
D36*
X106720000Y-101219144D02*
X105322845Y-99821989D01*
X106720000Y-101600000D02*
X106720000Y-101219144D01*
X99948999Y-98424999D02*
X99314000Y-97790000D01*
X105322845Y-99821989D02*
X101345989Y-99821989D01*
X101345989Y-99821989D02*
X99948999Y-98424999D01*
D37*
X105725000Y-108585000D02*
X105250000Y-108585000D01*
X106863212Y-102622212D02*
X106863212Y-107446788D01*
X106720000Y-102479000D02*
X106863212Y-102622212D01*
X106720000Y-101600000D02*
X106720000Y-102479000D01*
X106863212Y-107446788D02*
X105725000Y-108585000D01*
D36*
X101600000Y-110650000D02*
X101600000Y-112522000D01*
X114300000Y-113190000D02*
X112936000Y-113190000D01*
X112936000Y-113190000D02*
X112776000Y-113030000D01*
X157480000Y-118380000D02*
X157480000Y-116840000D01*
X139700000Y-118380000D02*
X139700000Y-116840000D01*
X121920000Y-118380000D02*
X121920000Y-117094000D01*
X104140000Y-118380000D02*
X104140000Y-117094000D01*
X157480000Y-77740000D02*
X156734000Y-77740000D01*
X156734000Y-77740000D02*
X156210000Y-77216000D01*
X139700000Y-77740000D02*
X138700000Y-77740000D01*
X138700000Y-77740000D02*
X138176000Y-77216000D01*
X121920000Y-77740000D02*
X120920000Y-77740000D01*
X120920000Y-77740000D02*
X120396000Y-77216000D01*
X104140000Y-77740000D02*
X103394000Y-77740000D01*
X103394000Y-77740000D02*
X102870000Y-77216000D01*
X130302000Y-95290000D02*
X126960000Y-95290000D01*
X126960000Y-95290000D02*
X126238000Y-96012000D01*
X151003000Y-94889000D02*
X152507000Y-94889000D01*
X152507000Y-94889000D02*
X152654000Y-94742000D01*
X101410000Y-97790000D02*
X99314000Y-97790000D01*
X101440000Y-91440000D02*
X101346000Y-91440000D01*
X101346000Y-91440000D02*
X99822000Y-92964000D01*
X92690000Y-127000000D02*
X92690000Y-122448000D01*
X92690000Y-122448000D02*
X93726000Y-121412000D01*
X94490000Y-119380000D02*
X94490000Y-120648000D01*
X94490000Y-120648000D02*
X93726000Y-121412000D01*
X88740000Y-73660000D02*
X88740000Y-74930000D01*
X88740000Y-74930000D02*
X88740000Y-76106000D01*
X88900000Y-71765000D02*
X88900000Y-74770000D01*
X88900000Y-74770000D02*
X88740000Y-74930000D01*
X90190000Y-68580000D02*
X90190000Y-70475000D01*
X90190000Y-70475000D02*
X88900000Y-71765000D01*
X88740000Y-76106000D02*
X86868000Y-77978000D01*
D37*
X172085000Y-85090000D02*
X173018451Y-86023451D01*
X173018451Y-86023451D02*
X174866034Y-86023451D01*
X174866034Y-86023451D02*
X174885082Y-86042499D01*
X132461000Y-96139000D02*
X131612000Y-95290000D01*
X131612000Y-95290000D02*
X130302000Y-95290000D01*
X135016000Y-96139000D02*
X132461000Y-96139000D01*
X147585000Y-95504000D02*
X149509000Y-95504000D01*
X149509000Y-95504000D02*
X150124000Y-94889000D01*
X150124000Y-94889000D02*
X151003000Y-94889000D01*
X146416000Y-95339000D02*
X147420000Y-95339000D01*
X147420000Y-95339000D02*
X147585000Y-95504000D01*
D36*
X107950000Y-92456000D02*
X107696000Y-92456000D01*
X106426000Y-92456000D02*
X107950000Y-92456000D01*
X103632000Y-95250000D02*
X106426000Y-92456000D01*
X95960000Y-95250000D02*
X103632000Y-95250000D01*
X91440000Y-93980000D02*
X94690000Y-93980000D01*
X94690000Y-93980000D02*
X95960000Y-95250000D01*
X88390000Y-119380000D02*
X88390000Y-125200000D01*
X88390000Y-125200000D02*
X90190000Y-127000000D01*
X86868000Y-115316000D02*
X88390000Y-116838000D01*
X88390000Y-116838000D02*
X88390000Y-119380000D01*
X86868000Y-97562000D02*
X86868000Y-115316000D01*
X91440000Y-93980000D02*
X90450000Y-93980000D01*
X90450000Y-93980000D02*
X86868000Y-97562000D01*
D37*
X107120000Y-81026000D02*
X104426000Y-81026000D01*
X104426000Y-81026000D02*
X103190000Y-79790000D01*
X103190000Y-79790000D02*
X103190000Y-79740000D01*
X109140000Y-80010000D02*
X108136000Y-80010000D01*
X108136000Y-80010000D02*
X107120000Y-81026000D01*
X109140000Y-77470000D02*
X107310000Y-77470000D01*
X107310000Y-77470000D02*
X105090000Y-79690000D01*
X105090000Y-79690000D02*
X105090000Y-79740000D01*
X109060000Y-116840000D02*
X107215802Y-116840000D01*
X103844000Y-119676000D02*
X103190000Y-120330000D01*
X107215802Y-116840000D02*
X104379802Y-119676000D01*
X103190000Y-120330000D02*
X103190000Y-120380000D01*
X104379802Y-119676000D02*
X103844000Y-119676000D01*
X109140000Y-119380000D02*
X106040000Y-119380000D01*
X106040000Y-119380000D02*
X105090000Y-120330000D01*
X105090000Y-120330000D02*
X105090000Y-120380000D01*
X126920000Y-80010000D02*
X125916000Y-80010000D01*
X120970000Y-79790000D02*
X120970000Y-79740000D01*
X125916000Y-80010000D02*
X125405799Y-80520201D01*
X125405799Y-80520201D02*
X121700201Y-80520201D01*
X121700201Y-80520201D02*
X120970000Y-79790000D01*
X126920000Y-77470000D02*
X125090000Y-77470000D01*
X125090000Y-77470000D02*
X122870000Y-79690000D01*
X122870000Y-79690000D02*
X122870000Y-79740000D01*
X126840000Y-116840000D02*
X124965638Y-116840000D01*
X124965638Y-116840000D02*
X122129638Y-119676000D01*
X122129638Y-119676000D02*
X121624000Y-119676000D01*
X121624000Y-119676000D02*
X120970000Y-120330000D01*
X120970000Y-120330000D02*
X120970000Y-120380000D01*
X126920000Y-119380000D02*
X123820000Y-119380000D01*
X123820000Y-119380000D02*
X122870000Y-120330000D01*
X122870000Y-120330000D02*
X122870000Y-120380000D01*
X138684000Y-81026000D02*
X138684000Y-79806000D01*
X138684000Y-79806000D02*
X138750000Y-79740000D01*
X144700000Y-80010000D02*
X144700000Y-80090000D01*
X144700000Y-80090000D02*
X143256000Y-81534000D01*
X144700000Y-77470000D02*
X142870000Y-77470000D01*
X142870000Y-77470000D02*
X140650000Y-79690000D01*
X140650000Y-79690000D02*
X140650000Y-79740000D01*
X144700000Y-116840000D02*
X142775802Y-116840000D01*
X142775802Y-116840000D02*
X139939802Y-119676000D01*
X139939802Y-119676000D02*
X139404000Y-119676000D01*
X139404000Y-119676000D02*
X138750000Y-120330000D01*
X138750000Y-120330000D02*
X138750000Y-120380000D01*
X144700000Y-119380000D02*
X141600000Y-119380000D01*
X141600000Y-119380000D02*
X140650000Y-120330000D01*
X140650000Y-120330000D02*
X140650000Y-120380000D01*
X162480000Y-80010000D02*
X162380000Y-80010000D01*
X157260201Y-80520201D02*
X156530000Y-79790000D01*
X162380000Y-80010000D02*
X161869799Y-80520201D01*
X161869799Y-80520201D02*
X157260201Y-80520201D01*
X156530000Y-79790000D02*
X156530000Y-79740000D01*
X162480000Y-77470000D02*
X160650000Y-77470000D01*
X160650000Y-77470000D02*
X158430000Y-79690000D01*
X158430000Y-79690000D02*
X158430000Y-79740000D01*
X162400000Y-116840000D02*
X160525638Y-116840000D01*
X160525638Y-116840000D02*
X157689638Y-119676000D01*
X157689638Y-119676000D02*
X157184000Y-119676000D01*
X157184000Y-119676000D02*
X156530000Y-120330000D01*
X156530000Y-120330000D02*
X156530000Y-120380000D01*
X162400000Y-119380000D02*
X159380000Y-119380000D01*
X159380000Y-119380000D02*
X158430000Y-120330000D01*
X158430000Y-120330000D02*
X158430000Y-120380000D01*
X131092802Y-99060000D02*
X132413802Y-97739000D01*
X132413802Y-97739000D02*
X134012000Y-97739000D01*
X114808000Y-99060000D02*
X131092802Y-99060000D01*
X134012000Y-97739000D02*
X135016000Y-97739000D01*
X134012000Y-98539000D02*
X135016000Y-98539000D01*
X115710211Y-99681789D02*
X131204211Y-99681789D01*
X114808000Y-100584000D02*
X115710211Y-99681789D01*
X131204211Y-99681789D02*
X132347000Y-98539000D01*
X132347000Y-98539000D02*
X134012000Y-98539000D01*
X172800000Y-91440000D02*
X172800000Y-90536000D01*
X172800000Y-90536000D02*
X172472349Y-90208349D01*
X172472349Y-90208349D02*
X172472349Y-87304124D01*
X172472349Y-87304124D02*
X172085000Y-86916775D01*
X172085000Y-86916775D02*
X172085000Y-86360000D01*
X173990000Y-94488000D02*
X173990000Y-92530000D01*
X173990000Y-92530000D02*
X172900000Y-91440000D01*
X172900000Y-91440000D02*
X172800000Y-91440000D01*
X142559000Y-103886000D02*
X146304000Y-103886000D01*
X146304000Y-103886000D02*
X147574000Y-105156000D01*
X141516000Y-101839000D02*
X141516000Y-102843000D01*
X141516000Y-102843000D02*
X142559000Y-103886000D01*
X165100000Y-91440000D02*
X165100000Y-89193876D01*
X165100000Y-89193876D02*
X168181527Y-86112349D01*
X168181527Y-86112349D02*
X169792651Y-86112349D01*
X169792651Y-86112349D02*
X170421301Y-85483699D01*
X170421301Y-85483699D02*
X170815000Y-85090000D01*
X140716000Y-101839000D02*
X140716000Y-103378000D01*
X172478699Y-83426301D02*
X172085000Y-83820000D01*
X173433742Y-82804000D02*
X172811441Y-83426301D01*
X175647084Y-83865960D02*
X174585124Y-82804000D01*
X175260000Y-91440000D02*
X175647084Y-91052916D01*
X175647084Y-91052916D02*
X175647084Y-83865960D01*
X172811441Y-83426301D02*
X172478699Y-83426301D01*
X174585124Y-82804000D02*
X173433742Y-82804000D01*
X139916000Y-103910299D02*
X139912896Y-103913403D01*
X139916000Y-101839000D02*
X139916000Y-103910299D01*
X148003791Y-93739000D02*
X148191243Y-93551548D01*
X148191243Y-93551548D02*
X148572242Y-93170549D01*
X146416000Y-93739000D02*
X148003791Y-93739000D01*
X146416000Y-94539000D02*
X148539000Y-94539000D01*
X148539000Y-94539000D02*
X149098000Y-93980000D01*
X143256000Y-99568000D02*
X143256000Y-101699000D01*
X143256000Y-101699000D02*
X143116000Y-101839000D01*
X133350000Y-81280000D02*
X133350000Y-81380000D01*
X133350000Y-81380000D02*
X135282000Y-83312000D01*
X135282000Y-83312000D02*
X143002000Y-83312000D01*
X131212000Y-75438000D02*
X128778000Y-75438000D01*
X128778000Y-75438000D02*
X122717181Y-69377181D01*
X133350000Y-78580000D02*
X133350000Y-77576000D01*
X133350000Y-77576000D02*
X131212000Y-75438000D01*
X144780000Y-99314000D02*
X144780000Y-101775000D01*
X144780000Y-101775000D02*
X144716000Y-101839000D01*
X153670000Y-81360000D02*
X153670000Y-81460000D01*
X153670000Y-81460000D02*
X148770000Y-86360000D01*
X148770000Y-86360000D02*
X144780000Y-86360000D01*
X156972000Y-75946000D02*
X157480000Y-75438000D01*
X157480000Y-75438000D02*
X157480000Y-69410201D01*
X155380000Y-75946000D02*
X156972000Y-75946000D01*
X153670000Y-78660000D02*
X153670000Y-77656000D01*
X153670000Y-77656000D02*
X155380000Y-75946000D01*
X138430000Y-93218000D02*
X136914362Y-93218000D01*
X136914362Y-93218000D02*
X135835362Y-92139000D01*
X135835362Y-92139000D02*
X135016000Y-92139000D01*
X165100000Y-116840000D02*
X165100000Y-114300000D01*
X128270000Y-93980000D02*
X128650999Y-93599001D01*
X128650999Y-93599001D02*
X134876001Y-93599001D01*
X134876001Y-93599001D02*
X135016000Y-93739000D01*
X129620000Y-119380000D02*
X129520000Y-119380000D01*
X129520000Y-119380000D02*
X128270000Y-118130000D01*
X128270000Y-118130000D02*
X128270000Y-109474000D01*
X139192000Y-95504000D02*
X138653185Y-95504000D01*
X138653185Y-95504000D02*
X138632184Y-95482999D01*
X138632184Y-95482999D02*
X136163999Y-95482999D01*
X136163999Y-95482999D02*
X136020000Y-95339000D01*
X136020000Y-95339000D02*
X135016000Y-95339000D01*
X165100000Y-119380000D02*
X165000000Y-119380000D01*
X165000000Y-119380000D02*
X163576000Y-117956000D01*
X163576000Y-117956000D02*
X163576000Y-113538000D01*
X141528798Y-85547202D02*
X141610099Y-85465901D01*
X141610099Y-85465901D02*
X141991098Y-85084902D01*
X131992622Y-85547202D02*
X141528798Y-85547202D01*
X127885420Y-81440000D02*
X131992622Y-85547202D01*
X115570000Y-81440000D02*
X127885420Y-81440000D01*
X142240000Y-99822000D02*
X142240000Y-101763000D01*
X142240000Y-101763000D02*
X142316000Y-101839000D01*
X113272000Y-75438000D02*
X110998000Y-75438000D01*
X110998000Y-75438000D02*
X104937181Y-69377181D01*
X115570000Y-78740000D02*
X115570000Y-77736000D01*
X115570000Y-77736000D02*
X113272000Y-75438000D01*
X144018000Y-100330000D02*
X144018000Y-101737000D01*
X144018000Y-101737000D02*
X143916000Y-101839000D01*
X151130000Y-81440000D02*
X148430000Y-81440000D01*
X148430000Y-81440000D02*
X144780000Y-85090000D01*
X148832000Y-75438000D02*
X146558000Y-75438000D01*
X146558000Y-75438000D02*
X140497181Y-69377181D01*
X151130000Y-78740000D02*
X151130000Y-77736000D01*
X151130000Y-77736000D02*
X148832000Y-75438000D01*
X119380000Y-92964000D02*
X134991000Y-92964000D01*
X134991000Y-92964000D02*
X135016000Y-92939000D01*
X111840000Y-119380000D02*
X112844000Y-119380000D01*
X112844000Y-119380000D02*
X119194000Y-113030000D01*
X119194000Y-113030000D02*
X119380000Y-113030000D01*
X136906000Y-94742000D02*
X136703000Y-94539000D01*
X136703000Y-94539000D02*
X135016000Y-94539000D01*
X147400000Y-119380000D02*
X147300000Y-119380000D01*
X147300000Y-119380000D02*
X146319799Y-118399799D01*
X146319799Y-118399799D02*
X146319799Y-113299799D01*
X146319799Y-113299799D02*
X145542000Y-112522000D01*
X114300000Y-107950000D02*
X114300000Y-110490000D01*
X110650000Y-107315000D02*
X113665000Y-107315000D01*
X113665000Y-107315000D02*
X114300000Y-107950000D01*
X137668000Y-92202000D02*
X136716000Y-91250000D01*
X136716000Y-91250000D02*
X136716000Y-90439000D01*
X147400000Y-116840000D02*
X147400000Y-111840000D01*
X147400000Y-111840000D02*
X147320000Y-111760000D01*
X118364000Y-88138000D02*
X137019000Y-88138000D01*
X137019000Y-88138000D02*
X138316000Y-89435000D01*
X138316000Y-89435000D02*
X138316000Y-90439000D01*
X111760000Y-116840000D02*
X112764000Y-116840000D01*
X112764000Y-116840000D02*
X116574000Y-113030000D01*
X116574000Y-113030000D02*
X118110000Y-113030000D01*
X135890000Y-119380000D02*
X135890000Y-120384000D01*
X135890000Y-120384000D02*
X139700000Y-124194000D01*
X139700000Y-124194000D02*
X139700000Y-128709799D01*
X139954000Y-91948000D02*
X139954000Y-90477000D01*
X139954000Y-90477000D02*
X139916000Y-90439000D01*
X129520000Y-77470000D02*
X128539799Y-78450201D01*
X132451638Y-84836000D02*
X139954000Y-84836000D01*
X129620000Y-77470000D02*
X129520000Y-77470000D01*
X128539799Y-78450201D02*
X128539799Y-80924161D01*
X128539799Y-80924161D02*
X132451638Y-84836000D01*
X100330000Y-119380000D02*
X100330000Y-120384000D01*
X100330000Y-120384000D02*
X104140000Y-124194000D01*
X104140000Y-124194000D02*
X104140000Y-128709799D01*
X141571799Y-91533799D02*
X141516000Y-91478000D01*
X141516000Y-91478000D02*
X141516000Y-90439000D01*
X165180000Y-77470000D02*
X165080000Y-77470000D01*
X165080000Y-77470000D02*
X163560201Y-78989799D01*
X163560201Y-78989799D02*
X163560201Y-80924161D01*
X163560201Y-80924161D02*
X152950563Y-91533799D01*
X152950563Y-91533799D02*
X141571799Y-91533799D01*
X153670000Y-119380000D02*
X153670000Y-120384000D01*
X153670000Y-120384000D02*
X157480000Y-124194000D01*
X157480000Y-124194000D02*
X157480000Y-128709799D01*
X129620000Y-80010000D02*
X129720000Y-80010000D01*
X129720000Y-80010000D02*
X133580798Y-83870798D01*
X143116000Y-89435000D02*
X143116000Y-90439000D01*
X133580798Y-83870798D02*
X133691378Y-83870798D01*
X133894580Y-84074000D02*
X141986000Y-84074000D01*
X133691378Y-83870798D02*
X133894580Y-84074000D01*
X143116000Y-85204000D02*
X143116000Y-89435000D01*
X141986000Y-84074000D02*
X143116000Y-85204000D01*
X118110000Y-119380000D02*
X118110000Y-120384000D01*
X118110000Y-120384000D02*
X121920000Y-124194000D01*
X121920000Y-124194000D02*
X121920000Y-128709799D01*
X147899653Y-92459347D02*
X147420000Y-92939000D01*
X148913620Y-92459347D02*
X147899653Y-92459347D01*
X149393273Y-92939000D02*
X148913620Y-92459347D01*
X153155000Y-92939000D02*
X149393273Y-92939000D01*
X165180000Y-80010000D02*
X165180000Y-80914000D01*
X165180000Y-80914000D02*
X153155000Y-92939000D01*
X147420000Y-92939000D02*
X146416000Y-92939000D01*
X150622000Y-105410000D02*
X150622000Y-100941000D01*
X150622000Y-100941000D02*
X147420000Y-97739000D01*
X147420000Y-97739000D02*
X146416000Y-97739000D01*
X146812000Y-109220000D02*
X150622000Y-105410000D01*
X144254000Y-109220000D02*
X146812000Y-109220000D01*
X135890000Y-116680000D02*
X136794000Y-116680000D01*
X136794000Y-116680000D02*
X144254000Y-109220000D01*
X147420000Y-99339000D02*
X146416000Y-99339000D01*
X149606000Y-101525000D02*
X147420000Y-99339000D01*
X149606000Y-105132816D02*
X149606000Y-101525000D01*
X146484027Y-108254789D02*
X149606000Y-105132816D01*
X123287407Y-111760000D02*
X126792618Y-108254789D01*
X106154000Y-111760000D02*
X123287407Y-111760000D01*
X100330000Y-116680000D02*
X101234000Y-116680000D01*
X101234000Y-116680000D02*
X106154000Y-111760000D01*
X126792618Y-108254789D02*
X146484027Y-108254789D01*
X153670000Y-102870000D02*
X147739000Y-96939000D01*
X147739000Y-96939000D02*
X146416000Y-96939000D01*
X153670000Y-116680000D02*
X153670000Y-102870000D01*
X147420000Y-98539000D02*
X146416000Y-98539000D01*
X150114000Y-105271408D02*
X150114000Y-101233000D01*
X146673408Y-108712000D02*
X150114000Y-105271408D01*
X126982000Y-108712000D02*
X146673408Y-108712000D01*
X119014000Y-116680000D02*
X126982000Y-108712000D01*
X150114000Y-101233000D02*
X147420000Y-98539000D01*
X118110000Y-116680000D02*
X119014000Y-116680000D01*
X129540000Y-88900000D02*
X136981000Y-88900000D01*
X136981000Y-88900000D02*
X137516000Y-89435000D01*
X137516000Y-89435000D02*
X137516000Y-90439000D01*
X129540000Y-116840000D02*
X129540000Y-114554000D01*
X110236000Y-94742000D02*
X109502000Y-94742000D01*
X109502000Y-94742000D02*
X109095000Y-94335000D01*
X138316000Y-101839000D02*
X138316000Y-100835000D01*
X138316000Y-100835000D02*
X138239799Y-100758799D01*
X138239799Y-100758799D02*
X136176839Y-100758799D01*
X136176839Y-100758799D02*
X135096638Y-101839000D01*
X135096638Y-101839000D02*
X114031000Y-101839000D01*
X114031000Y-101839000D02*
X110236000Y-98044000D01*
X95758000Y-97282000D02*
X95758000Y-105918000D01*
X104013000Y-107315000D02*
X105250000Y-107315000D01*
X95758000Y-105918000D02*
X99060000Y-109220000D01*
X99060000Y-109220000D02*
X102324362Y-109220000D01*
X102324362Y-109220000D02*
X103378000Y-108166362D01*
X103378000Y-108166362D02*
X103378000Y-107950000D01*
X103378000Y-107950000D02*
X104013000Y-107315000D01*
X104140000Y-91440000D02*
X101854000Y-93726000D01*
X104040000Y-91440000D02*
X104140000Y-91440000D01*
X105250000Y-107315000D02*
X105725000Y-107315000D01*
X104140000Y-88900000D02*
X104140000Y-91440000D01*
X101600000Y-105570000D02*
X101600000Y-107950000D01*
X105250000Y-106045000D02*
X102075000Y-106045000D01*
X102075000Y-106045000D02*
X101600000Y-105570000D01*
X105250000Y-103196605D02*
X104310175Y-102256780D01*
X104310175Y-102256780D02*
X103929176Y-101875781D01*
X105250000Y-104775000D02*
X105250000Y-103196605D01*
X101600000Y-102870000D02*
X102934957Y-102870000D01*
X102934957Y-102870000D02*
X103548177Y-102256780D01*
X103548177Y-102256780D02*
X103929176Y-101875781D01*
X117031000Y-100139000D02*
X116078000Y-101092000D01*
X135016000Y-100139000D02*
X117031000Y-100139000D01*
X105990093Y-94687974D02*
X106371092Y-94306975D01*
X105410000Y-97790000D02*
X105410000Y-95268067D01*
X105410000Y-95268067D02*
X105990093Y-94687974D01*
X105410000Y-97790000D02*
X105560000Y-97790000D01*
X105560000Y-97790000D02*
X108088999Y-100318999D01*
X108088999Y-100318999D02*
X108088999Y-106498999D01*
X108088999Y-106498999D02*
X110175000Y-108585000D01*
X110175000Y-108585000D02*
X110650000Y-108585000D01*
X111375000Y-94335000D02*
X110845000Y-94335000D01*
X110845000Y-94335000D02*
X110236000Y-93726000D01*
X114300000Y-105250000D02*
X113396000Y-105250000D01*
X113396000Y-105250000D02*
X112601000Y-106045000D01*
X112601000Y-106045000D02*
X111679000Y-106045000D01*
X111679000Y-106045000D02*
X110650000Y-106045000D01*
X139116000Y-101839000D02*
X139116000Y-102843000D01*
X139116000Y-102843000D02*
X136709000Y-105250000D01*
X115204000Y-105250000D02*
X114300000Y-105250000D01*
X136709000Y-105250000D02*
X115204000Y-105250000D01*
X137414000Y-86868000D02*
X139116000Y-88570000D01*
X139116000Y-88570000D02*
X139116000Y-90439000D01*
X116703638Y-86868000D02*
X137414000Y-86868000D01*
X111740000Y-77470000D02*
X110759799Y-78450201D01*
X110759799Y-78450201D02*
X110759799Y-80924161D01*
X110759799Y-80924161D02*
X116703638Y-86868000D01*
X111840000Y-77470000D02*
X111740000Y-77470000D01*
X111840000Y-77470000D02*
X111940000Y-77470000D01*
X140970000Y-92202000D02*
X140716000Y-91948000D01*
X140716000Y-91948000D02*
X140716000Y-90439000D01*
X147400000Y-77470000D02*
X147300000Y-77470000D01*
X145740201Y-79029799D02*
X143685839Y-79029799D01*
X140970000Y-81745638D02*
X140970000Y-82550000D01*
X147300000Y-77470000D02*
X145740201Y-79029799D01*
X143685839Y-79029799D02*
X140970000Y-81745638D01*
X142316000Y-89435000D02*
X142316000Y-90439000D01*
X138885413Y-86004413D02*
X142316000Y-89435000D01*
X131803240Y-86004413D02*
X138885413Y-86004413D01*
X131396827Y-85598000D02*
X131803240Y-86004413D01*
X111840000Y-80010000D02*
X111940000Y-80010000D01*
X111940000Y-80010000D02*
X117528000Y-85598000D01*
X117528000Y-85598000D02*
X131396827Y-85598000D01*
X147400000Y-80010000D02*
X147400000Y-80914000D01*
X147400000Y-80914000D02*
X143916000Y-84398000D01*
X143916000Y-84398000D02*
X143916000Y-89435000D01*
X143916000Y-89435000D02*
X143916000Y-90439000D01*
G36*
X107083110Y-91831431D02*
X107335000Y-91882440D01*
X113135000Y-91882440D01*
X113370317Y-91838162D01*
X113396988Y-91821000D01*
X113665000Y-91821000D01*
X113665000Y-95250000D01*
X113550000Y-95250000D01*
X113550000Y-94620750D01*
X113391250Y-94462000D01*
X112642000Y-94462000D01*
X112642000Y-94482000D01*
X112422440Y-94482000D01*
X112422440Y-93235000D01*
X112388000Y-93051967D01*
X112388000Y-92758750D01*
X112642000Y-92758750D01*
X112642000Y-94208000D01*
X113391250Y-94208000D01*
X113550000Y-94049250D01*
X113550000Y-93108691D01*
X113453327Y-92875302D01*
X113274699Y-92696673D01*
X113041310Y-92600000D01*
X112800750Y-92600000D01*
X112642000Y-92758750D01*
X112388000Y-92758750D01*
X112229250Y-92600000D01*
X111988690Y-92600000D01*
X111938694Y-92620709D01*
X111775000Y-92587560D01*
X110975000Y-92587560D01*
X110739683Y-92631838D01*
X110547753Y-92755342D01*
X110438982Y-92710176D01*
X110034792Y-92709824D01*
X109920369Y-92757102D01*
X109746890Y-92638569D01*
X109495000Y-92587560D01*
X108695000Y-92587560D01*
X108527408Y-92619095D01*
X108481310Y-92600000D01*
X108240750Y-92600000D01*
X108082000Y-92758750D01*
X108082000Y-93064930D01*
X108047560Y-93235000D01*
X108047560Y-94482000D01*
X107828000Y-94482000D01*
X107828000Y-94462000D01*
X107808000Y-94462000D01*
X107808000Y-94208000D01*
X107828000Y-94208000D01*
X107828000Y-92758750D01*
X107669250Y-92600000D01*
X107428690Y-92600000D01*
X107195301Y-92696673D01*
X107016673Y-92875302D01*
X106920000Y-93108691D01*
X106920000Y-93434793D01*
X106807000Y-93387871D01*
X106807000Y-91821000D01*
X107067844Y-91821000D01*
X107083110Y-91831431D01*
X107083110Y-91831431D01*
G37*
X107083110Y-91831431D02*
X107335000Y-91882440D01*
X113135000Y-91882440D01*
X113370317Y-91838162D01*
X113396988Y-91821000D01*
X113665000Y-91821000D01*
X113665000Y-95250000D01*
X113550000Y-95250000D01*
X113550000Y-94620750D01*
X113391250Y-94462000D01*
X112642000Y-94462000D01*
X112642000Y-94482000D01*
X112422440Y-94482000D01*
X112422440Y-93235000D01*
X112388000Y-93051967D01*
X112388000Y-92758750D01*
X112642000Y-92758750D01*
X112642000Y-94208000D01*
X113391250Y-94208000D01*
X113550000Y-94049250D01*
X113550000Y-93108691D01*
X113453327Y-92875302D01*
X113274699Y-92696673D01*
X113041310Y-92600000D01*
X112800750Y-92600000D01*
X112642000Y-92758750D01*
X112388000Y-92758750D01*
X112229250Y-92600000D01*
X111988690Y-92600000D01*
X111938694Y-92620709D01*
X111775000Y-92587560D01*
X110975000Y-92587560D01*
X110739683Y-92631838D01*
X110547753Y-92755342D01*
X110438982Y-92710176D01*
X110034792Y-92709824D01*
X109920369Y-92757102D01*
X109746890Y-92638569D01*
X109495000Y-92587560D01*
X108695000Y-92587560D01*
X108527408Y-92619095D01*
X108481310Y-92600000D01*
X108240750Y-92600000D01*
X108082000Y-92758750D01*
X108082000Y-93064930D01*
X108047560Y-93235000D01*
X108047560Y-94482000D01*
X107828000Y-94482000D01*
X107828000Y-94462000D01*
X107808000Y-94462000D01*
X107808000Y-94208000D01*
X107828000Y-94208000D01*
X107828000Y-92758750D01*
X107669250Y-92600000D01*
X107428690Y-92600000D01*
X107195301Y-92696673D01*
X107016673Y-92875302D01*
X106920000Y-93108691D01*
X106920000Y-93434793D01*
X106807000Y-93387871D01*
X106807000Y-91821000D01*
X107067844Y-91821000D01*
X107083110Y-91831431D01*
M02*
