G04 #@! TF.FileFunction,Soldermask,Bot*
%FSLAX46Y46*%
G04 Gerber Fmt 4.6, Leading zero omitted, Abs format (unit mm)*
G04 Created by KiCad (PCBNEW 4.0.6) date 11/20/17 19:22:43*
%MOMM*%
%LPD*%
G01*
G04 APERTURE LIST*
%ADD10C,0.100000*%
%ADD11R,3.960000X1.980000*%
%ADD12O,3.960000X1.980000*%
%ADD13C,2.374900*%
%ADD14C,0.990600*%
%ADD15R,1.700000X1.700000*%
%ADD16O,1.700000X1.700000*%
%ADD17C,8.600000*%
%ADD18C,0.900000*%
%ADD19C,1.270000*%
%ADD20C,0.762000*%
G04 APERTURE END LIST*
D10*
D11*
X91440000Y-81280000D03*
D12*
X91440000Y-86280000D03*
D11*
X91440000Y-93980000D03*
D12*
X91440000Y-98980000D03*
X91440000Y-108980000D03*
X91440000Y-103980000D03*
D13*
X173990000Y-87630000D03*
X168910000Y-87630000D03*
X168910000Y-84455000D03*
X173990000Y-84455000D03*
D14*
X170434000Y-82550000D03*
X172466000Y-82550000D03*
X171450000Y-87630000D03*
D15*
X173990000Y-69850000D03*
D16*
X173990000Y-72390000D03*
X173990000Y-74930000D03*
X173990000Y-77470000D03*
D17*
X91440000Y-62230000D03*
D18*
X94665000Y-62230000D03*
X93720419Y-64510419D03*
X91440000Y-65455000D03*
X89159581Y-64510419D03*
X88215000Y-62230000D03*
X89159581Y-59949581D03*
X91440000Y-59005000D03*
X93720419Y-59949581D03*
D17*
X91440000Y-137160000D03*
D18*
X94665000Y-137160000D03*
X93720419Y-139440419D03*
X91440000Y-140385000D03*
X89159581Y-139440419D03*
X88215000Y-137160000D03*
X89159581Y-134879581D03*
X91440000Y-133935000D03*
X93720419Y-134879581D03*
D17*
X170180000Y-62230000D03*
D18*
X173405000Y-62230000D03*
X172460419Y-64510419D03*
X170180000Y-65455000D03*
X167899581Y-64510419D03*
X166955000Y-62230000D03*
X167899581Y-59949581D03*
X170180000Y-59005000D03*
X172460419Y-59949581D03*
D17*
X170180000Y-137160000D03*
D18*
X173405000Y-137160000D03*
X172460419Y-139440419D03*
X170180000Y-140385000D03*
X167899581Y-139440419D03*
X166955000Y-137160000D03*
X167899581Y-134879581D03*
X170180000Y-133935000D03*
X172460419Y-134879581D03*
D19*
X94742000Y-67564000D03*
X101600000Y-112522000D03*
X112776000Y-113030000D03*
X157480000Y-116840000D03*
X139700000Y-116840000D03*
X121920000Y-117094000D03*
X104140000Y-117094000D03*
X156210000Y-77216000D03*
X138176000Y-77216000D03*
X120396000Y-77216000D03*
X102870000Y-77216000D03*
X126238000Y-96012000D03*
X152654000Y-94742000D03*
X99314000Y-97790000D03*
X99822000Y-92964000D03*
X93726000Y-121412000D03*
X86868000Y-77978000D03*
D20*
X174885082Y-86042499D03*
X138684000Y-81026000D03*
X143256000Y-81534000D03*
X114808000Y-99060000D03*
X114808000Y-100584000D03*
X173990000Y-94488000D03*
X147574000Y-105156000D03*
X165100000Y-91440000D03*
X140716000Y-103378000D03*
X139912896Y-103913403D03*
X175260000Y-91440000D03*
X148572242Y-93170549D03*
X149098000Y-93980000D03*
X143256000Y-99568000D03*
X143002000Y-83312000D03*
X144780000Y-99314000D03*
X144780000Y-86360000D03*
X138430000Y-93218000D03*
X165100000Y-114300000D03*
X128270000Y-93980000D03*
X128270000Y-109474000D03*
X139192000Y-95504000D03*
X163576000Y-113538000D03*
X141991098Y-85084902D03*
X142240000Y-99822000D03*
X144018000Y-100330000D03*
X144780000Y-85090000D03*
X119380000Y-92964000D03*
X119380000Y-113030000D03*
X136906000Y-94742000D03*
X145542000Y-112522000D03*
X137668000Y-92202000D03*
X147320000Y-111760000D03*
X118364000Y-88138000D03*
X118110000Y-113030000D03*
X139954000Y-91948000D03*
X139954000Y-84836000D03*
X129540000Y-88900000D03*
X129540000Y-114554000D03*
X110236000Y-94742000D03*
X110236000Y-98044000D03*
X95758000Y-97282000D03*
X101854000Y-93726000D03*
X103929176Y-101875781D03*
X116078000Y-101092000D03*
X106371092Y-94306975D03*
X110236000Y-93726000D03*
X140970000Y-92202000D03*
X140970000Y-82550000D03*
M02*
