G04 #@! TF.FileFunction,Copper,L2,Bot,Signal*
%FSLAX46Y46*%
G04 Gerber Fmt 4.6, Leading zero omitted, Abs format (unit mm)*
G04 Created by KiCad (PCBNEW 4.0.6) date 11/20/17 19:22:43*
%MOMM*%
%LPD*%
G01*
G04 APERTURE LIST*
%ADD10C,0.100000*%
%ADD11R,3.960000X1.980000*%
%ADD12O,3.960000X1.980000*%
%ADD13R,1.700000X1.700000*%
%ADD14O,1.700000X1.700000*%
%ADD15C,8.600000*%
%ADD16C,0.900000*%
%ADD17C,1.270000*%
%ADD18C,0.762000*%
%ADD19C,1.270000*%
%ADD20C,0.254000*%
G04 APERTURE END LIST*
D10*
D11*
X91440000Y-81280000D03*
D12*
X91440000Y-86280000D03*
D11*
X91440000Y-93980000D03*
D12*
X91440000Y-98980000D03*
X91440000Y-108980000D03*
X91440000Y-103980000D03*
D13*
X173990000Y-69850000D03*
D14*
X173990000Y-72390000D03*
X173990000Y-74930000D03*
X173990000Y-77470000D03*
D15*
X91440000Y-62230000D03*
D16*
X94665000Y-62230000D03*
X93720419Y-64510419D03*
X91440000Y-65455000D03*
X89159581Y-64510419D03*
X88215000Y-62230000D03*
X89159581Y-59949581D03*
X91440000Y-59005000D03*
X93720419Y-59949581D03*
D15*
X91440000Y-137160000D03*
D16*
X94665000Y-137160000D03*
X93720419Y-139440419D03*
X91440000Y-140385000D03*
X89159581Y-139440419D03*
X88215000Y-137160000D03*
X89159581Y-134879581D03*
X91440000Y-133935000D03*
X93720419Y-134879581D03*
D15*
X170180000Y-62230000D03*
D16*
X173405000Y-62230000D03*
X172460419Y-64510419D03*
X170180000Y-65455000D03*
X167899581Y-64510419D03*
X166955000Y-62230000D03*
X167899581Y-59949581D03*
X170180000Y-59005000D03*
X172460419Y-59949581D03*
D15*
X170180000Y-137160000D03*
D16*
X173405000Y-137160000D03*
X172460419Y-139440419D03*
X170180000Y-140385000D03*
X167899581Y-139440419D03*
X166955000Y-137160000D03*
X167899581Y-134879581D03*
X170180000Y-133935000D03*
X172460419Y-134879581D03*
D17*
X94742000Y-67564000D03*
X101600000Y-112522000D03*
X112776000Y-113030000D03*
X157480000Y-116840000D03*
X139700000Y-116840000D03*
X121920000Y-117094000D03*
X104140000Y-117094000D03*
X156210000Y-77216000D03*
X138176000Y-77216000D03*
X120396000Y-77216000D03*
X102870000Y-77216000D03*
X126238000Y-96012000D03*
X152654000Y-94742000D03*
X99314000Y-97790000D03*
X99822000Y-92964000D03*
X93726000Y-121412000D03*
X86868000Y-77978000D03*
D18*
X174885082Y-86042499D03*
X138684000Y-81026000D03*
X143256000Y-81534000D03*
X114808000Y-99060000D03*
X114808000Y-100584000D03*
X173990000Y-94488000D03*
X147574000Y-105156000D03*
X165100000Y-91440000D03*
X140716000Y-103378000D03*
X139912896Y-103913403D03*
X175260000Y-91440000D03*
X148572242Y-93170549D03*
X149098000Y-93980000D03*
X143256000Y-99568000D03*
X143002000Y-83312000D03*
X144780000Y-99314000D03*
X144780000Y-86360000D03*
X138430000Y-93218000D03*
X165100000Y-114300000D03*
X128270000Y-93980000D03*
X128270000Y-109474000D03*
X139192000Y-95504000D03*
X163576000Y-113538000D03*
X141991098Y-85084902D03*
X142240000Y-99822000D03*
X144018000Y-100330000D03*
X144780000Y-85090000D03*
X119380000Y-92964000D03*
X119380000Y-113030000D03*
X136906000Y-94742000D03*
X145542000Y-112522000D03*
X137668000Y-92202000D03*
X147320000Y-111760000D03*
X118364000Y-88138000D03*
X118110000Y-113030000D03*
X139954000Y-91948000D03*
X139954000Y-84836000D03*
X129540000Y-88900000D03*
X129540000Y-114554000D03*
X110236000Y-94742000D03*
X110236000Y-98044000D03*
X95758000Y-97282000D03*
X101854000Y-93726000D03*
X103929176Y-101875781D03*
X116078000Y-101092000D03*
X106371092Y-94306975D03*
X110236000Y-93726000D03*
X140970000Y-92202000D03*
X140970000Y-82550000D03*
D19*
X96774000Y-61214000D02*
X96774000Y-65532000D01*
X96774000Y-65532000D02*
X94742000Y-67564000D01*
X100947001Y-57040999D02*
X96774000Y-61214000D01*
X162306000Y-57658000D02*
X161688999Y-57040999D01*
X161688999Y-57040999D02*
X100947001Y-57040999D01*
X164084000Y-59436000D02*
X162306000Y-57658000D01*
X164084000Y-63813722D02*
X164084000Y-59436000D01*
X173990000Y-69850000D02*
X170120278Y-69850000D01*
X170120278Y-69850000D02*
X164084000Y-63813722D01*
D20*
X143256000Y-81534000D02*
X142748000Y-81026000D01*
X142748000Y-81026000D02*
X138684000Y-81026000D01*
X91440000Y-98980000D02*
X114728000Y-98980000D01*
X114728000Y-98980000D02*
X114808000Y-99060000D01*
X91440000Y-103980000D02*
X91440000Y-102736000D01*
X91440000Y-102736000D02*
X93592000Y-100584000D01*
X93592000Y-100584000D02*
X114808000Y-100584000D01*
X164846000Y-105156000D02*
X173990000Y-96012000D01*
X173990000Y-96012000D02*
X173990000Y-94488000D01*
X147574000Y-105156000D02*
X164846000Y-105156000D01*
X140716000Y-103378000D02*
X153162000Y-103378000D01*
X153162000Y-103378000D02*
X165100000Y-91440000D01*
X140293895Y-104294402D02*
X139912896Y-103913403D01*
X162405598Y-104294402D02*
X140293895Y-104294402D01*
X175260000Y-91440000D02*
X162405598Y-104294402D01*
X148953241Y-92789550D02*
X148572242Y-93170549D01*
X169352791Y-72390000D02*
X148953241Y-92789550D01*
X173990000Y-72390000D02*
X169352791Y-72390000D01*
X149098000Y-93980000D02*
X149636815Y-93980000D01*
X149636815Y-93980000D02*
X168686815Y-74930000D01*
X168686815Y-74930000D02*
X172787919Y-74930000D01*
X172787919Y-74930000D02*
X173990000Y-74930000D01*
X143002000Y-83312000D02*
X143002000Y-99314000D01*
X143002000Y-99314000D02*
X143256000Y-99568000D01*
X144780000Y-86898815D02*
X144780000Y-99314000D01*
X144780000Y-86360000D02*
X144780000Y-86898815D01*
X140716000Y-110744000D02*
X138430000Y-108458000D01*
X138430000Y-108458000D02*
X138430000Y-93218000D01*
X149860000Y-110744000D02*
X140716000Y-110744000D01*
X153416000Y-114300000D02*
X149860000Y-110744000D01*
X165100000Y-114300000D02*
X153416000Y-114300000D01*
X128270000Y-109474000D02*
X128270000Y-93980000D01*
X140970000Y-109982000D02*
X139192000Y-108204000D01*
X139192000Y-108204000D02*
X139192000Y-95504000D01*
X150622000Y-109982000D02*
X140970000Y-109982000D01*
X153797001Y-113157001D02*
X150622000Y-109982000D01*
X163576000Y-113538000D02*
X163195001Y-113157001D01*
X163195001Y-113157001D02*
X153797001Y-113157001D01*
X142240000Y-85333804D02*
X141991098Y-85084902D01*
X142240000Y-99822000D02*
X142240000Y-85333804D01*
X144780000Y-85090000D02*
X144018000Y-85852000D01*
X144018000Y-85852000D02*
X144018000Y-100330000D01*
X119380000Y-113030000D02*
X119380000Y-92964000D01*
X139446000Y-112014000D02*
X136906000Y-109474000D01*
X136906000Y-109474000D02*
X136906000Y-94742000D01*
X145034000Y-112014000D02*
X139446000Y-112014000D01*
X145542000Y-112522000D02*
X145034000Y-112014000D01*
X139827001Y-111379001D02*
X137668000Y-109220000D01*
X137668000Y-109220000D02*
X137668000Y-92202000D01*
X147320000Y-111760000D02*
X146939001Y-111379001D01*
X146939001Y-111379001D02*
X139827001Y-111379001D01*
X118110000Y-113030000D02*
X118110000Y-88392000D01*
X118110000Y-88392000D02*
X118364000Y-88138000D01*
X139954000Y-84836000D02*
X139954000Y-91948000D01*
X129540000Y-114554000D02*
X129540000Y-88900000D01*
X110236000Y-98044000D02*
X110236000Y-94742000D01*
X101854000Y-93726000D02*
X98298000Y-97282000D01*
X98298000Y-97282000D02*
X95758000Y-97282000D01*
X115294219Y-101875781D02*
X104467991Y-101875781D01*
X116078000Y-101092000D02*
X115294219Y-101875781D01*
X104467991Y-101875781D02*
X103929176Y-101875781D01*
X106752091Y-93925976D02*
X106371092Y-94306975D01*
X106952067Y-93726000D02*
X106752091Y-93925976D01*
X110236000Y-93726000D02*
X106952067Y-93726000D01*
X140970000Y-82550000D02*
X140970000Y-92202000D01*
G36*
X148615784Y-92408587D02*
X148421336Y-92408417D01*
X148141168Y-92524181D01*
X147926627Y-92738347D01*
X147810375Y-93018313D01*
X147810110Y-93321455D01*
X147925874Y-93601623D01*
X148140040Y-93816164D01*
X148336072Y-93897564D01*
X148335868Y-94130906D01*
X148451632Y-94411074D01*
X148665798Y-94625615D01*
X148945764Y-94741867D01*
X149248906Y-94742132D01*
X149529074Y-94626368D01*
X149675366Y-94480332D01*
X149831218Y-94449331D01*
X149996025Y-94339210D01*
X156394620Y-87940615D01*
X167341278Y-87940615D01*
X167579557Y-88517295D01*
X168020384Y-88958892D01*
X168596647Y-89198177D01*
X169220615Y-89198722D01*
X169797295Y-88960443D01*
X170238892Y-88519616D01*
X170478177Y-87943353D01*
X170478299Y-87803542D01*
X170573548Y-87803542D01*
X170706676Y-88125736D01*
X170952968Y-88372458D01*
X171274928Y-88506148D01*
X171623542Y-88506452D01*
X171945736Y-88373324D01*
X172192458Y-88127032D01*
X172269865Y-87940615D01*
X172421278Y-87940615D01*
X172659557Y-88517295D01*
X173100384Y-88958892D01*
X173676647Y-89198177D01*
X174300615Y-89198722D01*
X174877295Y-88960443D01*
X175318892Y-88519616D01*
X175558177Y-87943353D01*
X175558722Y-87319385D01*
X175320443Y-86742705D01*
X174879616Y-86301108D01*
X174303353Y-86061823D01*
X173679385Y-86061278D01*
X173102705Y-86299557D01*
X172661108Y-86740384D01*
X172421823Y-87316647D01*
X172421278Y-87940615D01*
X172269865Y-87940615D01*
X172326148Y-87805072D01*
X172326452Y-87456458D01*
X172193324Y-87134264D01*
X171947032Y-86887542D01*
X171625072Y-86753852D01*
X171276458Y-86753548D01*
X170954264Y-86886676D01*
X170707542Y-87132968D01*
X170573852Y-87454928D01*
X170573548Y-87803542D01*
X170478299Y-87803542D01*
X170478722Y-87319385D01*
X170240443Y-86742705D01*
X169799616Y-86301108D01*
X169223353Y-86061823D01*
X168599385Y-86061278D01*
X168022705Y-86299557D01*
X167581108Y-86740384D01*
X167341823Y-87316647D01*
X167341278Y-87940615D01*
X156394620Y-87940615D01*
X159569620Y-84765615D01*
X167341278Y-84765615D01*
X167579557Y-85342295D01*
X168020384Y-85783892D01*
X168596647Y-86023177D01*
X169220615Y-86023722D01*
X169797295Y-85785443D01*
X170238892Y-85344616D01*
X170478177Y-84768353D01*
X170478722Y-84144385D01*
X170240443Y-83567705D01*
X169986001Y-83312818D01*
X170258928Y-83426148D01*
X170607542Y-83426452D01*
X170929736Y-83293324D01*
X171176458Y-83047032D01*
X171310148Y-82725072D01*
X171310149Y-82723542D01*
X171589548Y-82723542D01*
X171722676Y-83045736D01*
X171968968Y-83292458D01*
X172290928Y-83426148D01*
X172639542Y-83426452D01*
X172913803Y-83313129D01*
X172661108Y-83565384D01*
X172421823Y-84141647D01*
X172421278Y-84765615D01*
X172659557Y-85342295D01*
X173100384Y-85783892D01*
X173676647Y-86023177D01*
X174300615Y-86023722D01*
X174877295Y-85785443D01*
X175318892Y-85344616D01*
X175558177Y-84768353D01*
X175558722Y-84144385D01*
X175320443Y-83567705D01*
X174879616Y-83126108D01*
X174303353Y-82886823D01*
X173679385Y-82886278D01*
X173150638Y-83104752D01*
X173208458Y-83047032D01*
X173342148Y-82725072D01*
X173342452Y-82376458D01*
X173209324Y-82054264D01*
X172963032Y-81807542D01*
X172641072Y-81673852D01*
X172292458Y-81673548D01*
X171970264Y-81806676D01*
X171723542Y-82052968D01*
X171589852Y-82374928D01*
X171589548Y-82723542D01*
X171310149Y-82723542D01*
X171310452Y-82376458D01*
X171177324Y-82054264D01*
X170931032Y-81807542D01*
X170609072Y-81673852D01*
X170260458Y-81673548D01*
X169938264Y-81806676D01*
X169691542Y-82052968D01*
X169557852Y-82374928D01*
X169557548Y-82723542D01*
X169690676Y-83045736D01*
X169750583Y-83105748D01*
X169223353Y-82886823D01*
X168599385Y-82886278D01*
X168022705Y-83124557D01*
X167581108Y-83565384D01*
X167341823Y-84141647D01*
X167341278Y-84765615D01*
X159569620Y-84765615D01*
X166508345Y-77826890D01*
X172548524Y-77826890D01*
X172718355Y-78236924D01*
X173108642Y-78665183D01*
X173633108Y-78911486D01*
X173863000Y-78790819D01*
X173863000Y-77597000D01*
X174117000Y-77597000D01*
X174117000Y-78790819D01*
X174346892Y-78911486D01*
X174871358Y-78665183D01*
X175261645Y-78236924D01*
X175431476Y-77826890D01*
X175310155Y-77597000D01*
X174117000Y-77597000D01*
X173863000Y-77597000D01*
X172669845Y-77597000D01*
X172548524Y-77826890D01*
X166508345Y-77826890D01*
X168008236Y-76327000D01*
X173061086Y-76327000D01*
X172718355Y-76703076D01*
X172548524Y-77113110D01*
X172669845Y-77343000D01*
X173863000Y-77343000D01*
X173863000Y-77323000D01*
X174117000Y-77323000D01*
X174117000Y-77343000D01*
X175310155Y-77343000D01*
X175431476Y-77113110D01*
X175261645Y-76703076D01*
X174918914Y-76327000D01*
X176074000Y-76327000D01*
X176074000Y-121793000D01*
X85546000Y-121793000D01*
X85546000Y-113180906D01*
X117347868Y-113180906D01*
X117463632Y-113461074D01*
X117677798Y-113675615D01*
X117957764Y-113791867D01*
X118260906Y-113792132D01*
X118541074Y-113676368D01*
X118745168Y-113472630D01*
X118947798Y-113675615D01*
X119227764Y-113791867D01*
X119530906Y-113792132D01*
X119811074Y-113676368D01*
X120025615Y-113462202D01*
X120141867Y-113182236D01*
X120142132Y-112879094D01*
X120026368Y-112598926D01*
X119888000Y-112460316D01*
X119888000Y-94130906D01*
X127507868Y-94130906D01*
X127623632Y-94411074D01*
X127762000Y-94549684D01*
X127762000Y-108904424D01*
X127624385Y-109041798D01*
X127508133Y-109321764D01*
X127507868Y-109624906D01*
X127623632Y-109905074D01*
X127837798Y-110119615D01*
X128117764Y-110235867D01*
X128420906Y-110236132D01*
X128701074Y-110120368D01*
X128915615Y-109906202D01*
X129031867Y-109626236D01*
X129032000Y-109474000D01*
X129032000Y-113984424D01*
X128894385Y-114121798D01*
X128778133Y-114401764D01*
X128777868Y-114704906D01*
X128893632Y-114985074D01*
X129107798Y-115199615D01*
X129387764Y-115315867D01*
X129690906Y-115316132D01*
X129971074Y-115200368D01*
X130185615Y-114986202D01*
X130301867Y-114706236D01*
X130302132Y-114403094D01*
X130186368Y-114122926D01*
X130048000Y-113984316D01*
X130048000Y-94892906D01*
X136143868Y-94892906D01*
X136259632Y-95173074D01*
X136398000Y-95311684D01*
X136398000Y-109474000D01*
X136436669Y-109668403D01*
X136546790Y-109833210D01*
X139086789Y-112373210D01*
X139103514Y-112384385D01*
X139251597Y-112483331D01*
X139446000Y-112522000D01*
X144780000Y-112522000D01*
X144779868Y-112672906D01*
X144895632Y-112953074D01*
X145109798Y-113167615D01*
X145389764Y-113283867D01*
X145692906Y-113284132D01*
X145973074Y-113168368D01*
X146187615Y-112954202D01*
X146303867Y-112674236D01*
X146304132Y-112371094D01*
X146188368Y-112090926D01*
X145984799Y-111887001D01*
X146557889Y-111887001D01*
X146557868Y-111910906D01*
X146673632Y-112191074D01*
X146887798Y-112405615D01*
X147167764Y-112521867D01*
X147470906Y-112522132D01*
X147751074Y-112406368D01*
X147965615Y-112192202D01*
X148081867Y-111912236D01*
X148082132Y-111609094D01*
X147966368Y-111328926D01*
X147889576Y-111252000D01*
X149649580Y-111252000D01*
X153056789Y-114659210D01*
X153221596Y-114769331D01*
X153253850Y-114775746D01*
X153416000Y-114808000D01*
X164530424Y-114808000D01*
X164667798Y-114945615D01*
X164947764Y-115061867D01*
X165250906Y-115062132D01*
X165531074Y-114946368D01*
X165745615Y-114732202D01*
X165861867Y-114452236D01*
X165862132Y-114149094D01*
X165746368Y-113868926D01*
X165532202Y-113654385D01*
X165252236Y-113538133D01*
X164949094Y-113537868D01*
X164668926Y-113653632D01*
X164530316Y-113792000D01*
X164295611Y-113792000D01*
X164337867Y-113690236D01*
X164338132Y-113387094D01*
X164222368Y-113106926D01*
X164008202Y-112892385D01*
X163728236Y-112776133D01*
X163521527Y-112775952D01*
X163389404Y-112687670D01*
X163195001Y-112649001D01*
X154007422Y-112649001D01*
X150981210Y-109622790D01*
X150816403Y-109512669D01*
X150622000Y-109474000D01*
X141180420Y-109474000D01*
X139700000Y-107993580D01*
X139700000Y-104650082D01*
X139760660Y-104675270D01*
X139967369Y-104675451D01*
X140099492Y-104763733D01*
X140293895Y-104802402D01*
X146895746Y-104802402D01*
X146812133Y-105003764D01*
X146811868Y-105306906D01*
X146927632Y-105587074D01*
X147141798Y-105801615D01*
X147421764Y-105917867D01*
X147724906Y-105918132D01*
X148005074Y-105802368D01*
X148143684Y-105664000D01*
X164846000Y-105664000D01*
X165040403Y-105625331D01*
X165205210Y-105515210D01*
X174349210Y-96371210D01*
X174459331Y-96206403D01*
X174498000Y-96012000D01*
X174498000Y-95057576D01*
X174635615Y-94920202D01*
X174751867Y-94640236D01*
X174752132Y-94337094D01*
X174636368Y-94056926D01*
X174422202Y-93842385D01*
X174142236Y-93726133D01*
X173839094Y-93725868D01*
X173589365Y-93829055D01*
X175216458Y-92201962D01*
X175410906Y-92202132D01*
X175691074Y-92086368D01*
X175905615Y-91872202D01*
X176021867Y-91592236D01*
X176022132Y-91289094D01*
X175906368Y-91008926D01*
X175692202Y-90794385D01*
X175412236Y-90678133D01*
X175109094Y-90677868D01*
X174828926Y-90793632D01*
X174614385Y-91007798D01*
X174498133Y-91287764D01*
X174497962Y-91483618D01*
X162195178Y-103786402D01*
X153447589Y-103786402D01*
X153521210Y-103737210D01*
X165056459Y-92201962D01*
X165250906Y-92202132D01*
X165531074Y-92086368D01*
X165745615Y-91872202D01*
X165861867Y-91592236D01*
X165862132Y-91289094D01*
X165746368Y-91008926D01*
X165532202Y-90794385D01*
X165252236Y-90678133D01*
X164949094Y-90677868D01*
X164668926Y-90793632D01*
X164454385Y-91007798D01*
X164338133Y-91287764D01*
X164337962Y-91483617D01*
X152951580Y-102870000D01*
X141285576Y-102870000D01*
X141148202Y-102732385D01*
X140868236Y-102616133D01*
X140565094Y-102615868D01*
X140284926Y-102731632D01*
X140070385Y-102945798D01*
X139984984Y-103151466D01*
X139761990Y-103151271D01*
X139700000Y-103176885D01*
X139700000Y-96073576D01*
X139837615Y-95936202D01*
X139953867Y-95656236D01*
X139954132Y-95353094D01*
X139838368Y-95072926D01*
X139624202Y-94858385D01*
X139344236Y-94742133D01*
X139041094Y-94741868D01*
X138938000Y-94784466D01*
X138938000Y-93787576D01*
X139075615Y-93650202D01*
X139191867Y-93370236D01*
X139192132Y-93067094D01*
X139076368Y-92786926D01*
X138862202Y-92572385D01*
X138582236Y-92456133D01*
X138387626Y-92455963D01*
X138429867Y-92354236D01*
X138430132Y-92051094D01*
X138314368Y-91770926D01*
X138100202Y-91556385D01*
X137820236Y-91440133D01*
X137517094Y-91439868D01*
X137236926Y-91555632D01*
X137022385Y-91769798D01*
X136906133Y-92049764D01*
X136905868Y-92352906D01*
X137021632Y-92633074D01*
X137160000Y-92771684D01*
X137160000Y-94022389D01*
X137058236Y-93980133D01*
X136755094Y-93979868D01*
X136474926Y-94095632D01*
X136260385Y-94309798D01*
X136144133Y-94589764D01*
X136143868Y-94892906D01*
X130048000Y-94892906D01*
X130048000Y-89469576D01*
X130185615Y-89332202D01*
X130301867Y-89052236D01*
X130302132Y-88749094D01*
X130186368Y-88468926D01*
X129972202Y-88254385D01*
X129692236Y-88138133D01*
X129389094Y-88137868D01*
X129108926Y-88253632D01*
X128894385Y-88467798D01*
X128778133Y-88747764D01*
X128777868Y-89050906D01*
X128893632Y-89331074D01*
X129032000Y-89469684D01*
X129032000Y-93828775D01*
X128916368Y-93548926D01*
X128702202Y-93334385D01*
X128422236Y-93218133D01*
X128119094Y-93217868D01*
X127838926Y-93333632D01*
X127624385Y-93547798D01*
X127508133Y-93827764D01*
X127507868Y-94130906D01*
X119888000Y-94130906D01*
X119888000Y-93533576D01*
X120025615Y-93396202D01*
X120141867Y-93116236D01*
X120142132Y-92813094D01*
X120026368Y-92532926D01*
X119812202Y-92318385D01*
X119532236Y-92202133D01*
X119229094Y-92201868D01*
X118948926Y-92317632D01*
X118734385Y-92531798D01*
X118618133Y-92811764D01*
X118618000Y-92963867D01*
X118618000Y-88857534D01*
X118795074Y-88784368D01*
X119009615Y-88570202D01*
X119125867Y-88290236D01*
X119126132Y-87987094D01*
X119010368Y-87706926D01*
X118796202Y-87492385D01*
X118516236Y-87376133D01*
X118213094Y-87375868D01*
X117932926Y-87491632D01*
X117718385Y-87705798D01*
X117602133Y-87985764D01*
X117601868Y-88288906D01*
X117615800Y-88322623D01*
X117602000Y-88392000D01*
X117602000Y-112460424D01*
X117464385Y-112597798D01*
X117348133Y-112877764D01*
X117347868Y-113180906D01*
X85546000Y-113180906D01*
X85546000Y-109358865D01*
X88869782Y-109358865D01*
X88900095Y-109484528D01*
X89211149Y-110039246D01*
X89710807Y-110432703D01*
X90323000Y-110605000D01*
X91313000Y-110605000D01*
X91313000Y-109107000D01*
X91567000Y-109107000D01*
X91567000Y-110605000D01*
X92557000Y-110605000D01*
X93169193Y-110432703D01*
X93668851Y-110039246D01*
X93979905Y-109484528D01*
X94010218Y-109358865D01*
X93890740Y-109107000D01*
X91567000Y-109107000D01*
X91313000Y-109107000D01*
X88989260Y-109107000D01*
X88869782Y-109358865D01*
X85546000Y-109358865D01*
X85546000Y-108601135D01*
X88869782Y-108601135D01*
X88989260Y-108853000D01*
X91313000Y-108853000D01*
X91313000Y-107355000D01*
X91567000Y-107355000D01*
X91567000Y-108853000D01*
X93890740Y-108853000D01*
X94010218Y-108601135D01*
X93979905Y-108475472D01*
X93668851Y-107920754D01*
X93169193Y-107527297D01*
X92557000Y-107355000D01*
X91567000Y-107355000D01*
X91313000Y-107355000D01*
X90323000Y-107355000D01*
X89710807Y-107527297D01*
X89211149Y-107920754D01*
X88900095Y-108475472D01*
X88869782Y-108601135D01*
X85546000Y-108601135D01*
X85546000Y-98980000D01*
X89032745Y-98980000D01*
X89137106Y-99504659D01*
X89434302Y-99949443D01*
X89879086Y-100246639D01*
X90403745Y-100351000D01*
X92476255Y-100351000D01*
X93000914Y-100246639D01*
X93445698Y-99949443D01*
X93742894Y-99504659D01*
X93746208Y-99488000D01*
X114160362Y-99488000D01*
X114161632Y-99491074D01*
X114375798Y-99705615D01*
X114655764Y-99821867D01*
X114657094Y-99821868D01*
X114376926Y-99937632D01*
X114238316Y-100076000D01*
X93592000Y-100076000D01*
X93397597Y-100114669D01*
X93232790Y-100224789D01*
X91080790Y-102376790D01*
X90970669Y-102541597D01*
X90957262Y-102609000D01*
X90403745Y-102609000D01*
X89879086Y-102713361D01*
X89434302Y-103010557D01*
X89137106Y-103455341D01*
X89032745Y-103980000D01*
X89137106Y-104504659D01*
X89434302Y-104949443D01*
X89879086Y-105246639D01*
X90403745Y-105351000D01*
X92476255Y-105351000D01*
X93000914Y-105246639D01*
X93445698Y-104949443D01*
X93742894Y-104504659D01*
X93847255Y-103980000D01*
X93742894Y-103455341D01*
X93445698Y-103010557D01*
X93000914Y-102713361D01*
X92476255Y-102609000D01*
X92285420Y-102609000D01*
X93802421Y-101092000D01*
X114238424Y-101092000D01*
X114375798Y-101229615D01*
X114655764Y-101345867D01*
X114958906Y-101346132D01*
X115208635Y-101242945D01*
X115083799Y-101367781D01*
X104498752Y-101367781D01*
X104361378Y-101230166D01*
X104081412Y-101113914D01*
X103778270Y-101113649D01*
X103498102Y-101229413D01*
X103283561Y-101443579D01*
X103167309Y-101723545D01*
X103167044Y-102026687D01*
X103282808Y-102306855D01*
X103496974Y-102521396D01*
X103776940Y-102637648D01*
X104080082Y-102637913D01*
X104360250Y-102522149D01*
X104498860Y-102383781D01*
X115294219Y-102383781D01*
X115488622Y-102345112D01*
X115653429Y-102234991D01*
X116034458Y-101853962D01*
X116228906Y-101854132D01*
X116509074Y-101738368D01*
X116723615Y-101524202D01*
X116839867Y-101244236D01*
X116840132Y-100941094D01*
X116724368Y-100660926D01*
X116510202Y-100446385D01*
X116230236Y-100330133D01*
X115927094Y-100329868D01*
X115646926Y-100445632D01*
X115570054Y-100522370D01*
X115570132Y-100433094D01*
X115454368Y-100152926D01*
X115240202Y-99938385D01*
X114960236Y-99822133D01*
X114958906Y-99822132D01*
X115239074Y-99706368D01*
X115453615Y-99492202D01*
X115569867Y-99212236D01*
X115570132Y-98909094D01*
X115454368Y-98628926D01*
X115240202Y-98414385D01*
X114960236Y-98298133D01*
X114657094Y-98297868D01*
X114376926Y-98413632D01*
X114318456Y-98472000D01*
X110883360Y-98472000D01*
X110997867Y-98196236D01*
X110998132Y-97893094D01*
X110882368Y-97612926D01*
X110744000Y-97474316D01*
X110744000Y-95311576D01*
X110881615Y-95174202D01*
X110997867Y-94894236D01*
X110998132Y-94591094D01*
X110882368Y-94310926D01*
X110805630Y-94234054D01*
X110881615Y-94158202D01*
X110997867Y-93878236D01*
X110998132Y-93575094D01*
X110882368Y-93294926D01*
X110668202Y-93080385D01*
X110388236Y-92964133D01*
X110085094Y-92963868D01*
X109804926Y-93079632D01*
X109666316Y-93218000D01*
X106952067Y-93218000D01*
X106757664Y-93256669D01*
X106592857Y-93366790D01*
X106414634Y-93545013D01*
X106220186Y-93544843D01*
X105940018Y-93660607D01*
X105725477Y-93874773D01*
X105609225Y-94154739D01*
X105608960Y-94457881D01*
X105724724Y-94738049D01*
X105938890Y-94952590D01*
X106218856Y-95068842D01*
X106521998Y-95069107D01*
X106802166Y-94953343D01*
X107016707Y-94739177D01*
X107132959Y-94459211D01*
X107133130Y-94263357D01*
X107162487Y-94234000D01*
X109666316Y-94234000D01*
X109590385Y-94309798D01*
X109474133Y-94589764D01*
X109473868Y-94892906D01*
X109589632Y-95173074D01*
X109728000Y-95311684D01*
X109728000Y-97474424D01*
X109590385Y-97611798D01*
X109474133Y-97891764D01*
X109473868Y-98194906D01*
X109588362Y-98472000D01*
X93746208Y-98472000D01*
X93742894Y-98455341D01*
X93445698Y-98010557D01*
X93000914Y-97713361D01*
X92476255Y-97609000D01*
X90403745Y-97609000D01*
X89879086Y-97713361D01*
X89434302Y-98010557D01*
X89137106Y-98455341D01*
X89032745Y-98980000D01*
X85546000Y-98980000D01*
X85546000Y-97432906D01*
X94995868Y-97432906D01*
X95111632Y-97713074D01*
X95325798Y-97927615D01*
X95605764Y-98043867D01*
X95908906Y-98044132D01*
X96189074Y-97928368D01*
X96327684Y-97790000D01*
X98298000Y-97790000D01*
X98492403Y-97751331D01*
X98657210Y-97641210D01*
X101810459Y-94487962D01*
X102004906Y-94488132D01*
X102285074Y-94372368D01*
X102499615Y-94158202D01*
X102615867Y-93878236D01*
X102616132Y-93575094D01*
X102500368Y-93294926D01*
X102286202Y-93080385D01*
X102006236Y-92964133D01*
X101703094Y-92963868D01*
X101422926Y-93079632D01*
X101208385Y-93293798D01*
X101092133Y-93573764D01*
X101091962Y-93769617D01*
X98087580Y-96774000D01*
X96327576Y-96774000D01*
X96190202Y-96636385D01*
X95910236Y-96520133D01*
X95607094Y-96519868D01*
X95326926Y-96635632D01*
X95112385Y-96849798D01*
X94996133Y-97129764D01*
X94995868Y-97432906D01*
X85546000Y-97432906D01*
X85546000Y-92990000D01*
X89071536Y-92990000D01*
X89071536Y-94970000D01*
X89098103Y-95111190D01*
X89181546Y-95240865D01*
X89308866Y-95327859D01*
X89460000Y-95358464D01*
X93420000Y-95358464D01*
X93561190Y-95331897D01*
X93690865Y-95248454D01*
X93777859Y-95121134D01*
X93808464Y-94970000D01*
X93808464Y-92990000D01*
X93781897Y-92848810D01*
X93698454Y-92719135D01*
X93571134Y-92632141D01*
X93420000Y-92601536D01*
X89460000Y-92601536D01*
X89318810Y-92628103D01*
X89189135Y-92711546D01*
X89102141Y-92838866D01*
X89071536Y-92990000D01*
X85546000Y-92990000D01*
X85546000Y-86658865D01*
X88869782Y-86658865D01*
X88900095Y-86784528D01*
X89211149Y-87339246D01*
X89710807Y-87732703D01*
X90323000Y-87905000D01*
X91313000Y-87905000D01*
X91313000Y-86407000D01*
X91567000Y-86407000D01*
X91567000Y-87905000D01*
X92557000Y-87905000D01*
X93169193Y-87732703D01*
X93668851Y-87339246D01*
X93979905Y-86784528D01*
X94010218Y-86658865D01*
X93890740Y-86407000D01*
X91567000Y-86407000D01*
X91313000Y-86407000D01*
X88989260Y-86407000D01*
X88869782Y-86658865D01*
X85546000Y-86658865D01*
X85546000Y-85901135D01*
X88869782Y-85901135D01*
X88989260Y-86153000D01*
X91313000Y-86153000D01*
X91313000Y-84655000D01*
X91567000Y-84655000D01*
X91567000Y-86153000D01*
X93890740Y-86153000D01*
X94010218Y-85901135D01*
X93979905Y-85775472D01*
X93668851Y-85220754D01*
X93371884Y-84986906D01*
X139191868Y-84986906D01*
X139307632Y-85267074D01*
X139446000Y-85405684D01*
X139446000Y-91378424D01*
X139308385Y-91515798D01*
X139192133Y-91795764D01*
X139191868Y-92098906D01*
X139307632Y-92379074D01*
X139521798Y-92593615D01*
X139801764Y-92709867D01*
X140104906Y-92710132D01*
X140318931Y-92621698D01*
X140323632Y-92633074D01*
X140537798Y-92847615D01*
X140817764Y-92963867D01*
X141120906Y-92964132D01*
X141401074Y-92848368D01*
X141615615Y-92634202D01*
X141731867Y-92354236D01*
X141732000Y-92202133D01*
X141732000Y-99252424D01*
X141594385Y-99389798D01*
X141478133Y-99669764D01*
X141477868Y-99972906D01*
X141593632Y-100253074D01*
X141807798Y-100467615D01*
X142087764Y-100583867D01*
X142390906Y-100584132D01*
X142671074Y-100468368D01*
X142885615Y-100254202D01*
X142890899Y-100241478D01*
X143103764Y-100329867D01*
X143256000Y-100330000D01*
X143255868Y-100480906D01*
X143371632Y-100761074D01*
X143585798Y-100975615D01*
X143865764Y-101091867D01*
X144168906Y-101092132D01*
X144449074Y-100976368D01*
X144663615Y-100762202D01*
X144779867Y-100482236D01*
X144780132Y-100179094D01*
X144737519Y-100075963D01*
X144930906Y-100076132D01*
X145211074Y-99960368D01*
X145425615Y-99746202D01*
X145541867Y-99466236D01*
X145542132Y-99163094D01*
X145426368Y-98882926D01*
X145288000Y-98744316D01*
X145288000Y-86929576D01*
X145425615Y-86792202D01*
X145541867Y-86512236D01*
X145542132Y-86209094D01*
X145426368Y-85928926D01*
X145222630Y-85724832D01*
X145425615Y-85522202D01*
X145541867Y-85242236D01*
X145542132Y-84939094D01*
X145426368Y-84658926D01*
X145212202Y-84444385D01*
X144932236Y-84328133D01*
X144629094Y-84327868D01*
X144348926Y-84443632D01*
X144134385Y-84657798D01*
X144018133Y-84937764D01*
X144017962Y-85133618D01*
X143658790Y-85492790D01*
X143548669Y-85657597D01*
X143510000Y-85852000D01*
X143510000Y-83881576D01*
X143647615Y-83744202D01*
X143763867Y-83464236D01*
X143764132Y-83161094D01*
X143648368Y-82880926D01*
X143434202Y-82666385D01*
X143154236Y-82550133D01*
X142851094Y-82549868D01*
X142570926Y-82665632D01*
X142356385Y-82879798D01*
X142240133Y-83159764D01*
X142239868Y-83462906D01*
X142355632Y-83743074D01*
X142494000Y-83881684D01*
X142494000Y-84510111D01*
X142423300Y-84439287D01*
X142143334Y-84323035D01*
X141840192Y-84322770D01*
X141560024Y-84438534D01*
X141478000Y-84520415D01*
X141478000Y-83119576D01*
X141615615Y-82982202D01*
X141731867Y-82702236D01*
X141732132Y-82399094D01*
X141616368Y-82118926D01*
X141402202Y-81904385D01*
X141122236Y-81788133D01*
X140819094Y-81787868D01*
X140538926Y-81903632D01*
X140324385Y-82117798D01*
X140208133Y-82397764D01*
X140207868Y-82700906D01*
X140323632Y-82981074D01*
X140462000Y-83119684D01*
X140462000Y-84266316D01*
X140386202Y-84190385D01*
X140106236Y-84074133D01*
X139803094Y-84073868D01*
X139522926Y-84189632D01*
X139308385Y-84403798D01*
X139192133Y-84683764D01*
X139191868Y-84986906D01*
X93371884Y-84986906D01*
X93169193Y-84827297D01*
X92557000Y-84655000D01*
X91567000Y-84655000D01*
X91313000Y-84655000D01*
X90323000Y-84655000D01*
X89710807Y-84827297D01*
X89211149Y-85220754D01*
X88900095Y-85775472D01*
X88869782Y-85901135D01*
X85546000Y-85901135D01*
X85546000Y-80290000D01*
X89071536Y-80290000D01*
X89071536Y-82270000D01*
X89098103Y-82411190D01*
X89181546Y-82540865D01*
X89308866Y-82627859D01*
X89460000Y-82658464D01*
X93420000Y-82658464D01*
X93561190Y-82631897D01*
X93690865Y-82548454D01*
X93777859Y-82421134D01*
X93808464Y-82270000D01*
X93808464Y-81176906D01*
X137921868Y-81176906D01*
X138037632Y-81457074D01*
X138251798Y-81671615D01*
X138531764Y-81787867D01*
X138834906Y-81788132D01*
X139115074Y-81672368D01*
X139253684Y-81534000D01*
X142494000Y-81534000D01*
X142493868Y-81684906D01*
X142609632Y-81965074D01*
X142823798Y-82179615D01*
X143103764Y-82295867D01*
X143406906Y-82296132D01*
X143687074Y-82180368D01*
X143901615Y-81966202D01*
X144017867Y-81686236D01*
X144018132Y-81383094D01*
X143902368Y-81102926D01*
X143688202Y-80888385D01*
X143408236Y-80772133D01*
X143212382Y-80771962D01*
X143107210Y-80666790D01*
X142942403Y-80556669D01*
X142748000Y-80518000D01*
X139253576Y-80518000D01*
X139116202Y-80380385D01*
X138836236Y-80264133D01*
X138533094Y-80263868D01*
X138252926Y-80379632D01*
X138038385Y-80593798D01*
X137922133Y-80873764D01*
X137921868Y-81176906D01*
X93808464Y-81176906D01*
X93808464Y-80290000D01*
X93781897Y-80148810D01*
X93698454Y-80019135D01*
X93571134Y-79932141D01*
X93420000Y-79901536D01*
X89460000Y-79901536D01*
X89318810Y-79928103D01*
X89189135Y-80011546D01*
X89102141Y-80138866D01*
X89071536Y-80290000D01*
X85546000Y-80290000D01*
X85546000Y-76327000D01*
X164697371Y-76327000D01*
X148615784Y-92408587D01*
X148615784Y-92408587D01*
G37*
X148615784Y-92408587D02*
X148421336Y-92408417D01*
X148141168Y-92524181D01*
X147926627Y-92738347D01*
X147810375Y-93018313D01*
X147810110Y-93321455D01*
X147925874Y-93601623D01*
X148140040Y-93816164D01*
X148336072Y-93897564D01*
X148335868Y-94130906D01*
X148451632Y-94411074D01*
X148665798Y-94625615D01*
X148945764Y-94741867D01*
X149248906Y-94742132D01*
X149529074Y-94626368D01*
X149675366Y-94480332D01*
X149831218Y-94449331D01*
X149996025Y-94339210D01*
X156394620Y-87940615D01*
X167341278Y-87940615D01*
X167579557Y-88517295D01*
X168020384Y-88958892D01*
X168596647Y-89198177D01*
X169220615Y-89198722D01*
X169797295Y-88960443D01*
X170238892Y-88519616D01*
X170478177Y-87943353D01*
X170478299Y-87803542D01*
X170573548Y-87803542D01*
X170706676Y-88125736D01*
X170952968Y-88372458D01*
X171274928Y-88506148D01*
X171623542Y-88506452D01*
X171945736Y-88373324D01*
X172192458Y-88127032D01*
X172269865Y-87940615D01*
X172421278Y-87940615D01*
X172659557Y-88517295D01*
X173100384Y-88958892D01*
X173676647Y-89198177D01*
X174300615Y-89198722D01*
X174877295Y-88960443D01*
X175318892Y-88519616D01*
X175558177Y-87943353D01*
X175558722Y-87319385D01*
X175320443Y-86742705D01*
X174879616Y-86301108D01*
X174303353Y-86061823D01*
X173679385Y-86061278D01*
X173102705Y-86299557D01*
X172661108Y-86740384D01*
X172421823Y-87316647D01*
X172421278Y-87940615D01*
X172269865Y-87940615D01*
X172326148Y-87805072D01*
X172326452Y-87456458D01*
X172193324Y-87134264D01*
X171947032Y-86887542D01*
X171625072Y-86753852D01*
X171276458Y-86753548D01*
X170954264Y-86886676D01*
X170707542Y-87132968D01*
X170573852Y-87454928D01*
X170573548Y-87803542D01*
X170478299Y-87803542D01*
X170478722Y-87319385D01*
X170240443Y-86742705D01*
X169799616Y-86301108D01*
X169223353Y-86061823D01*
X168599385Y-86061278D01*
X168022705Y-86299557D01*
X167581108Y-86740384D01*
X167341823Y-87316647D01*
X167341278Y-87940615D01*
X156394620Y-87940615D01*
X159569620Y-84765615D01*
X167341278Y-84765615D01*
X167579557Y-85342295D01*
X168020384Y-85783892D01*
X168596647Y-86023177D01*
X169220615Y-86023722D01*
X169797295Y-85785443D01*
X170238892Y-85344616D01*
X170478177Y-84768353D01*
X170478722Y-84144385D01*
X170240443Y-83567705D01*
X169986001Y-83312818D01*
X170258928Y-83426148D01*
X170607542Y-83426452D01*
X170929736Y-83293324D01*
X171176458Y-83047032D01*
X171310148Y-82725072D01*
X171310149Y-82723542D01*
X171589548Y-82723542D01*
X171722676Y-83045736D01*
X171968968Y-83292458D01*
X172290928Y-83426148D01*
X172639542Y-83426452D01*
X172913803Y-83313129D01*
X172661108Y-83565384D01*
X172421823Y-84141647D01*
X172421278Y-84765615D01*
X172659557Y-85342295D01*
X173100384Y-85783892D01*
X173676647Y-86023177D01*
X174300615Y-86023722D01*
X174877295Y-85785443D01*
X175318892Y-85344616D01*
X175558177Y-84768353D01*
X175558722Y-84144385D01*
X175320443Y-83567705D01*
X174879616Y-83126108D01*
X174303353Y-82886823D01*
X173679385Y-82886278D01*
X173150638Y-83104752D01*
X173208458Y-83047032D01*
X173342148Y-82725072D01*
X173342452Y-82376458D01*
X173209324Y-82054264D01*
X172963032Y-81807542D01*
X172641072Y-81673852D01*
X172292458Y-81673548D01*
X171970264Y-81806676D01*
X171723542Y-82052968D01*
X171589852Y-82374928D01*
X171589548Y-82723542D01*
X171310149Y-82723542D01*
X171310452Y-82376458D01*
X171177324Y-82054264D01*
X170931032Y-81807542D01*
X170609072Y-81673852D01*
X170260458Y-81673548D01*
X169938264Y-81806676D01*
X169691542Y-82052968D01*
X169557852Y-82374928D01*
X169557548Y-82723542D01*
X169690676Y-83045736D01*
X169750583Y-83105748D01*
X169223353Y-82886823D01*
X168599385Y-82886278D01*
X168022705Y-83124557D01*
X167581108Y-83565384D01*
X167341823Y-84141647D01*
X167341278Y-84765615D01*
X159569620Y-84765615D01*
X166508345Y-77826890D01*
X172548524Y-77826890D01*
X172718355Y-78236924D01*
X173108642Y-78665183D01*
X173633108Y-78911486D01*
X173863000Y-78790819D01*
X173863000Y-77597000D01*
X174117000Y-77597000D01*
X174117000Y-78790819D01*
X174346892Y-78911486D01*
X174871358Y-78665183D01*
X175261645Y-78236924D01*
X175431476Y-77826890D01*
X175310155Y-77597000D01*
X174117000Y-77597000D01*
X173863000Y-77597000D01*
X172669845Y-77597000D01*
X172548524Y-77826890D01*
X166508345Y-77826890D01*
X168008236Y-76327000D01*
X173061086Y-76327000D01*
X172718355Y-76703076D01*
X172548524Y-77113110D01*
X172669845Y-77343000D01*
X173863000Y-77343000D01*
X173863000Y-77323000D01*
X174117000Y-77323000D01*
X174117000Y-77343000D01*
X175310155Y-77343000D01*
X175431476Y-77113110D01*
X175261645Y-76703076D01*
X174918914Y-76327000D01*
X176074000Y-76327000D01*
X176074000Y-121793000D01*
X85546000Y-121793000D01*
X85546000Y-113180906D01*
X117347868Y-113180906D01*
X117463632Y-113461074D01*
X117677798Y-113675615D01*
X117957764Y-113791867D01*
X118260906Y-113792132D01*
X118541074Y-113676368D01*
X118745168Y-113472630D01*
X118947798Y-113675615D01*
X119227764Y-113791867D01*
X119530906Y-113792132D01*
X119811074Y-113676368D01*
X120025615Y-113462202D01*
X120141867Y-113182236D01*
X120142132Y-112879094D01*
X120026368Y-112598926D01*
X119888000Y-112460316D01*
X119888000Y-94130906D01*
X127507868Y-94130906D01*
X127623632Y-94411074D01*
X127762000Y-94549684D01*
X127762000Y-108904424D01*
X127624385Y-109041798D01*
X127508133Y-109321764D01*
X127507868Y-109624906D01*
X127623632Y-109905074D01*
X127837798Y-110119615D01*
X128117764Y-110235867D01*
X128420906Y-110236132D01*
X128701074Y-110120368D01*
X128915615Y-109906202D01*
X129031867Y-109626236D01*
X129032000Y-109474000D01*
X129032000Y-113984424D01*
X128894385Y-114121798D01*
X128778133Y-114401764D01*
X128777868Y-114704906D01*
X128893632Y-114985074D01*
X129107798Y-115199615D01*
X129387764Y-115315867D01*
X129690906Y-115316132D01*
X129971074Y-115200368D01*
X130185615Y-114986202D01*
X130301867Y-114706236D01*
X130302132Y-114403094D01*
X130186368Y-114122926D01*
X130048000Y-113984316D01*
X130048000Y-94892906D01*
X136143868Y-94892906D01*
X136259632Y-95173074D01*
X136398000Y-95311684D01*
X136398000Y-109474000D01*
X136436669Y-109668403D01*
X136546790Y-109833210D01*
X139086789Y-112373210D01*
X139103514Y-112384385D01*
X139251597Y-112483331D01*
X139446000Y-112522000D01*
X144780000Y-112522000D01*
X144779868Y-112672906D01*
X144895632Y-112953074D01*
X145109798Y-113167615D01*
X145389764Y-113283867D01*
X145692906Y-113284132D01*
X145973074Y-113168368D01*
X146187615Y-112954202D01*
X146303867Y-112674236D01*
X146304132Y-112371094D01*
X146188368Y-112090926D01*
X145984799Y-111887001D01*
X146557889Y-111887001D01*
X146557868Y-111910906D01*
X146673632Y-112191074D01*
X146887798Y-112405615D01*
X147167764Y-112521867D01*
X147470906Y-112522132D01*
X147751074Y-112406368D01*
X147965615Y-112192202D01*
X148081867Y-111912236D01*
X148082132Y-111609094D01*
X147966368Y-111328926D01*
X147889576Y-111252000D01*
X149649580Y-111252000D01*
X153056789Y-114659210D01*
X153221596Y-114769331D01*
X153253850Y-114775746D01*
X153416000Y-114808000D01*
X164530424Y-114808000D01*
X164667798Y-114945615D01*
X164947764Y-115061867D01*
X165250906Y-115062132D01*
X165531074Y-114946368D01*
X165745615Y-114732202D01*
X165861867Y-114452236D01*
X165862132Y-114149094D01*
X165746368Y-113868926D01*
X165532202Y-113654385D01*
X165252236Y-113538133D01*
X164949094Y-113537868D01*
X164668926Y-113653632D01*
X164530316Y-113792000D01*
X164295611Y-113792000D01*
X164337867Y-113690236D01*
X164338132Y-113387094D01*
X164222368Y-113106926D01*
X164008202Y-112892385D01*
X163728236Y-112776133D01*
X163521527Y-112775952D01*
X163389404Y-112687670D01*
X163195001Y-112649001D01*
X154007422Y-112649001D01*
X150981210Y-109622790D01*
X150816403Y-109512669D01*
X150622000Y-109474000D01*
X141180420Y-109474000D01*
X139700000Y-107993580D01*
X139700000Y-104650082D01*
X139760660Y-104675270D01*
X139967369Y-104675451D01*
X140099492Y-104763733D01*
X140293895Y-104802402D01*
X146895746Y-104802402D01*
X146812133Y-105003764D01*
X146811868Y-105306906D01*
X146927632Y-105587074D01*
X147141798Y-105801615D01*
X147421764Y-105917867D01*
X147724906Y-105918132D01*
X148005074Y-105802368D01*
X148143684Y-105664000D01*
X164846000Y-105664000D01*
X165040403Y-105625331D01*
X165205210Y-105515210D01*
X174349210Y-96371210D01*
X174459331Y-96206403D01*
X174498000Y-96012000D01*
X174498000Y-95057576D01*
X174635615Y-94920202D01*
X174751867Y-94640236D01*
X174752132Y-94337094D01*
X174636368Y-94056926D01*
X174422202Y-93842385D01*
X174142236Y-93726133D01*
X173839094Y-93725868D01*
X173589365Y-93829055D01*
X175216458Y-92201962D01*
X175410906Y-92202132D01*
X175691074Y-92086368D01*
X175905615Y-91872202D01*
X176021867Y-91592236D01*
X176022132Y-91289094D01*
X175906368Y-91008926D01*
X175692202Y-90794385D01*
X175412236Y-90678133D01*
X175109094Y-90677868D01*
X174828926Y-90793632D01*
X174614385Y-91007798D01*
X174498133Y-91287764D01*
X174497962Y-91483618D01*
X162195178Y-103786402D01*
X153447589Y-103786402D01*
X153521210Y-103737210D01*
X165056459Y-92201962D01*
X165250906Y-92202132D01*
X165531074Y-92086368D01*
X165745615Y-91872202D01*
X165861867Y-91592236D01*
X165862132Y-91289094D01*
X165746368Y-91008926D01*
X165532202Y-90794385D01*
X165252236Y-90678133D01*
X164949094Y-90677868D01*
X164668926Y-90793632D01*
X164454385Y-91007798D01*
X164338133Y-91287764D01*
X164337962Y-91483617D01*
X152951580Y-102870000D01*
X141285576Y-102870000D01*
X141148202Y-102732385D01*
X140868236Y-102616133D01*
X140565094Y-102615868D01*
X140284926Y-102731632D01*
X140070385Y-102945798D01*
X139984984Y-103151466D01*
X139761990Y-103151271D01*
X139700000Y-103176885D01*
X139700000Y-96073576D01*
X139837615Y-95936202D01*
X139953867Y-95656236D01*
X139954132Y-95353094D01*
X139838368Y-95072926D01*
X139624202Y-94858385D01*
X139344236Y-94742133D01*
X139041094Y-94741868D01*
X138938000Y-94784466D01*
X138938000Y-93787576D01*
X139075615Y-93650202D01*
X139191867Y-93370236D01*
X139192132Y-93067094D01*
X139076368Y-92786926D01*
X138862202Y-92572385D01*
X138582236Y-92456133D01*
X138387626Y-92455963D01*
X138429867Y-92354236D01*
X138430132Y-92051094D01*
X138314368Y-91770926D01*
X138100202Y-91556385D01*
X137820236Y-91440133D01*
X137517094Y-91439868D01*
X137236926Y-91555632D01*
X137022385Y-91769798D01*
X136906133Y-92049764D01*
X136905868Y-92352906D01*
X137021632Y-92633074D01*
X137160000Y-92771684D01*
X137160000Y-94022389D01*
X137058236Y-93980133D01*
X136755094Y-93979868D01*
X136474926Y-94095632D01*
X136260385Y-94309798D01*
X136144133Y-94589764D01*
X136143868Y-94892906D01*
X130048000Y-94892906D01*
X130048000Y-89469576D01*
X130185615Y-89332202D01*
X130301867Y-89052236D01*
X130302132Y-88749094D01*
X130186368Y-88468926D01*
X129972202Y-88254385D01*
X129692236Y-88138133D01*
X129389094Y-88137868D01*
X129108926Y-88253632D01*
X128894385Y-88467798D01*
X128778133Y-88747764D01*
X128777868Y-89050906D01*
X128893632Y-89331074D01*
X129032000Y-89469684D01*
X129032000Y-93828775D01*
X128916368Y-93548926D01*
X128702202Y-93334385D01*
X128422236Y-93218133D01*
X128119094Y-93217868D01*
X127838926Y-93333632D01*
X127624385Y-93547798D01*
X127508133Y-93827764D01*
X127507868Y-94130906D01*
X119888000Y-94130906D01*
X119888000Y-93533576D01*
X120025615Y-93396202D01*
X120141867Y-93116236D01*
X120142132Y-92813094D01*
X120026368Y-92532926D01*
X119812202Y-92318385D01*
X119532236Y-92202133D01*
X119229094Y-92201868D01*
X118948926Y-92317632D01*
X118734385Y-92531798D01*
X118618133Y-92811764D01*
X118618000Y-92963867D01*
X118618000Y-88857534D01*
X118795074Y-88784368D01*
X119009615Y-88570202D01*
X119125867Y-88290236D01*
X119126132Y-87987094D01*
X119010368Y-87706926D01*
X118796202Y-87492385D01*
X118516236Y-87376133D01*
X118213094Y-87375868D01*
X117932926Y-87491632D01*
X117718385Y-87705798D01*
X117602133Y-87985764D01*
X117601868Y-88288906D01*
X117615800Y-88322623D01*
X117602000Y-88392000D01*
X117602000Y-112460424D01*
X117464385Y-112597798D01*
X117348133Y-112877764D01*
X117347868Y-113180906D01*
X85546000Y-113180906D01*
X85546000Y-109358865D01*
X88869782Y-109358865D01*
X88900095Y-109484528D01*
X89211149Y-110039246D01*
X89710807Y-110432703D01*
X90323000Y-110605000D01*
X91313000Y-110605000D01*
X91313000Y-109107000D01*
X91567000Y-109107000D01*
X91567000Y-110605000D01*
X92557000Y-110605000D01*
X93169193Y-110432703D01*
X93668851Y-110039246D01*
X93979905Y-109484528D01*
X94010218Y-109358865D01*
X93890740Y-109107000D01*
X91567000Y-109107000D01*
X91313000Y-109107000D01*
X88989260Y-109107000D01*
X88869782Y-109358865D01*
X85546000Y-109358865D01*
X85546000Y-108601135D01*
X88869782Y-108601135D01*
X88989260Y-108853000D01*
X91313000Y-108853000D01*
X91313000Y-107355000D01*
X91567000Y-107355000D01*
X91567000Y-108853000D01*
X93890740Y-108853000D01*
X94010218Y-108601135D01*
X93979905Y-108475472D01*
X93668851Y-107920754D01*
X93169193Y-107527297D01*
X92557000Y-107355000D01*
X91567000Y-107355000D01*
X91313000Y-107355000D01*
X90323000Y-107355000D01*
X89710807Y-107527297D01*
X89211149Y-107920754D01*
X88900095Y-108475472D01*
X88869782Y-108601135D01*
X85546000Y-108601135D01*
X85546000Y-98980000D01*
X89032745Y-98980000D01*
X89137106Y-99504659D01*
X89434302Y-99949443D01*
X89879086Y-100246639D01*
X90403745Y-100351000D01*
X92476255Y-100351000D01*
X93000914Y-100246639D01*
X93445698Y-99949443D01*
X93742894Y-99504659D01*
X93746208Y-99488000D01*
X114160362Y-99488000D01*
X114161632Y-99491074D01*
X114375798Y-99705615D01*
X114655764Y-99821867D01*
X114657094Y-99821868D01*
X114376926Y-99937632D01*
X114238316Y-100076000D01*
X93592000Y-100076000D01*
X93397597Y-100114669D01*
X93232790Y-100224789D01*
X91080790Y-102376790D01*
X90970669Y-102541597D01*
X90957262Y-102609000D01*
X90403745Y-102609000D01*
X89879086Y-102713361D01*
X89434302Y-103010557D01*
X89137106Y-103455341D01*
X89032745Y-103980000D01*
X89137106Y-104504659D01*
X89434302Y-104949443D01*
X89879086Y-105246639D01*
X90403745Y-105351000D01*
X92476255Y-105351000D01*
X93000914Y-105246639D01*
X93445698Y-104949443D01*
X93742894Y-104504659D01*
X93847255Y-103980000D01*
X93742894Y-103455341D01*
X93445698Y-103010557D01*
X93000914Y-102713361D01*
X92476255Y-102609000D01*
X92285420Y-102609000D01*
X93802421Y-101092000D01*
X114238424Y-101092000D01*
X114375798Y-101229615D01*
X114655764Y-101345867D01*
X114958906Y-101346132D01*
X115208635Y-101242945D01*
X115083799Y-101367781D01*
X104498752Y-101367781D01*
X104361378Y-101230166D01*
X104081412Y-101113914D01*
X103778270Y-101113649D01*
X103498102Y-101229413D01*
X103283561Y-101443579D01*
X103167309Y-101723545D01*
X103167044Y-102026687D01*
X103282808Y-102306855D01*
X103496974Y-102521396D01*
X103776940Y-102637648D01*
X104080082Y-102637913D01*
X104360250Y-102522149D01*
X104498860Y-102383781D01*
X115294219Y-102383781D01*
X115488622Y-102345112D01*
X115653429Y-102234991D01*
X116034458Y-101853962D01*
X116228906Y-101854132D01*
X116509074Y-101738368D01*
X116723615Y-101524202D01*
X116839867Y-101244236D01*
X116840132Y-100941094D01*
X116724368Y-100660926D01*
X116510202Y-100446385D01*
X116230236Y-100330133D01*
X115927094Y-100329868D01*
X115646926Y-100445632D01*
X115570054Y-100522370D01*
X115570132Y-100433094D01*
X115454368Y-100152926D01*
X115240202Y-99938385D01*
X114960236Y-99822133D01*
X114958906Y-99822132D01*
X115239074Y-99706368D01*
X115453615Y-99492202D01*
X115569867Y-99212236D01*
X115570132Y-98909094D01*
X115454368Y-98628926D01*
X115240202Y-98414385D01*
X114960236Y-98298133D01*
X114657094Y-98297868D01*
X114376926Y-98413632D01*
X114318456Y-98472000D01*
X110883360Y-98472000D01*
X110997867Y-98196236D01*
X110998132Y-97893094D01*
X110882368Y-97612926D01*
X110744000Y-97474316D01*
X110744000Y-95311576D01*
X110881615Y-95174202D01*
X110997867Y-94894236D01*
X110998132Y-94591094D01*
X110882368Y-94310926D01*
X110805630Y-94234054D01*
X110881615Y-94158202D01*
X110997867Y-93878236D01*
X110998132Y-93575094D01*
X110882368Y-93294926D01*
X110668202Y-93080385D01*
X110388236Y-92964133D01*
X110085094Y-92963868D01*
X109804926Y-93079632D01*
X109666316Y-93218000D01*
X106952067Y-93218000D01*
X106757664Y-93256669D01*
X106592857Y-93366790D01*
X106414634Y-93545013D01*
X106220186Y-93544843D01*
X105940018Y-93660607D01*
X105725477Y-93874773D01*
X105609225Y-94154739D01*
X105608960Y-94457881D01*
X105724724Y-94738049D01*
X105938890Y-94952590D01*
X106218856Y-95068842D01*
X106521998Y-95069107D01*
X106802166Y-94953343D01*
X107016707Y-94739177D01*
X107132959Y-94459211D01*
X107133130Y-94263357D01*
X107162487Y-94234000D01*
X109666316Y-94234000D01*
X109590385Y-94309798D01*
X109474133Y-94589764D01*
X109473868Y-94892906D01*
X109589632Y-95173074D01*
X109728000Y-95311684D01*
X109728000Y-97474424D01*
X109590385Y-97611798D01*
X109474133Y-97891764D01*
X109473868Y-98194906D01*
X109588362Y-98472000D01*
X93746208Y-98472000D01*
X93742894Y-98455341D01*
X93445698Y-98010557D01*
X93000914Y-97713361D01*
X92476255Y-97609000D01*
X90403745Y-97609000D01*
X89879086Y-97713361D01*
X89434302Y-98010557D01*
X89137106Y-98455341D01*
X89032745Y-98980000D01*
X85546000Y-98980000D01*
X85546000Y-97432906D01*
X94995868Y-97432906D01*
X95111632Y-97713074D01*
X95325798Y-97927615D01*
X95605764Y-98043867D01*
X95908906Y-98044132D01*
X96189074Y-97928368D01*
X96327684Y-97790000D01*
X98298000Y-97790000D01*
X98492403Y-97751331D01*
X98657210Y-97641210D01*
X101810459Y-94487962D01*
X102004906Y-94488132D01*
X102285074Y-94372368D01*
X102499615Y-94158202D01*
X102615867Y-93878236D01*
X102616132Y-93575094D01*
X102500368Y-93294926D01*
X102286202Y-93080385D01*
X102006236Y-92964133D01*
X101703094Y-92963868D01*
X101422926Y-93079632D01*
X101208385Y-93293798D01*
X101092133Y-93573764D01*
X101091962Y-93769617D01*
X98087580Y-96774000D01*
X96327576Y-96774000D01*
X96190202Y-96636385D01*
X95910236Y-96520133D01*
X95607094Y-96519868D01*
X95326926Y-96635632D01*
X95112385Y-96849798D01*
X94996133Y-97129764D01*
X94995868Y-97432906D01*
X85546000Y-97432906D01*
X85546000Y-92990000D01*
X89071536Y-92990000D01*
X89071536Y-94970000D01*
X89098103Y-95111190D01*
X89181546Y-95240865D01*
X89308866Y-95327859D01*
X89460000Y-95358464D01*
X93420000Y-95358464D01*
X93561190Y-95331897D01*
X93690865Y-95248454D01*
X93777859Y-95121134D01*
X93808464Y-94970000D01*
X93808464Y-92990000D01*
X93781897Y-92848810D01*
X93698454Y-92719135D01*
X93571134Y-92632141D01*
X93420000Y-92601536D01*
X89460000Y-92601536D01*
X89318810Y-92628103D01*
X89189135Y-92711546D01*
X89102141Y-92838866D01*
X89071536Y-92990000D01*
X85546000Y-92990000D01*
X85546000Y-86658865D01*
X88869782Y-86658865D01*
X88900095Y-86784528D01*
X89211149Y-87339246D01*
X89710807Y-87732703D01*
X90323000Y-87905000D01*
X91313000Y-87905000D01*
X91313000Y-86407000D01*
X91567000Y-86407000D01*
X91567000Y-87905000D01*
X92557000Y-87905000D01*
X93169193Y-87732703D01*
X93668851Y-87339246D01*
X93979905Y-86784528D01*
X94010218Y-86658865D01*
X93890740Y-86407000D01*
X91567000Y-86407000D01*
X91313000Y-86407000D01*
X88989260Y-86407000D01*
X88869782Y-86658865D01*
X85546000Y-86658865D01*
X85546000Y-85901135D01*
X88869782Y-85901135D01*
X88989260Y-86153000D01*
X91313000Y-86153000D01*
X91313000Y-84655000D01*
X91567000Y-84655000D01*
X91567000Y-86153000D01*
X93890740Y-86153000D01*
X94010218Y-85901135D01*
X93979905Y-85775472D01*
X93668851Y-85220754D01*
X93371884Y-84986906D01*
X139191868Y-84986906D01*
X139307632Y-85267074D01*
X139446000Y-85405684D01*
X139446000Y-91378424D01*
X139308385Y-91515798D01*
X139192133Y-91795764D01*
X139191868Y-92098906D01*
X139307632Y-92379074D01*
X139521798Y-92593615D01*
X139801764Y-92709867D01*
X140104906Y-92710132D01*
X140318931Y-92621698D01*
X140323632Y-92633074D01*
X140537798Y-92847615D01*
X140817764Y-92963867D01*
X141120906Y-92964132D01*
X141401074Y-92848368D01*
X141615615Y-92634202D01*
X141731867Y-92354236D01*
X141732000Y-92202133D01*
X141732000Y-99252424D01*
X141594385Y-99389798D01*
X141478133Y-99669764D01*
X141477868Y-99972906D01*
X141593632Y-100253074D01*
X141807798Y-100467615D01*
X142087764Y-100583867D01*
X142390906Y-100584132D01*
X142671074Y-100468368D01*
X142885615Y-100254202D01*
X142890899Y-100241478D01*
X143103764Y-100329867D01*
X143256000Y-100330000D01*
X143255868Y-100480906D01*
X143371632Y-100761074D01*
X143585798Y-100975615D01*
X143865764Y-101091867D01*
X144168906Y-101092132D01*
X144449074Y-100976368D01*
X144663615Y-100762202D01*
X144779867Y-100482236D01*
X144780132Y-100179094D01*
X144737519Y-100075963D01*
X144930906Y-100076132D01*
X145211074Y-99960368D01*
X145425615Y-99746202D01*
X145541867Y-99466236D01*
X145542132Y-99163094D01*
X145426368Y-98882926D01*
X145288000Y-98744316D01*
X145288000Y-86929576D01*
X145425615Y-86792202D01*
X145541867Y-86512236D01*
X145542132Y-86209094D01*
X145426368Y-85928926D01*
X145222630Y-85724832D01*
X145425615Y-85522202D01*
X145541867Y-85242236D01*
X145542132Y-84939094D01*
X145426368Y-84658926D01*
X145212202Y-84444385D01*
X144932236Y-84328133D01*
X144629094Y-84327868D01*
X144348926Y-84443632D01*
X144134385Y-84657798D01*
X144018133Y-84937764D01*
X144017962Y-85133618D01*
X143658790Y-85492790D01*
X143548669Y-85657597D01*
X143510000Y-85852000D01*
X143510000Y-83881576D01*
X143647615Y-83744202D01*
X143763867Y-83464236D01*
X143764132Y-83161094D01*
X143648368Y-82880926D01*
X143434202Y-82666385D01*
X143154236Y-82550133D01*
X142851094Y-82549868D01*
X142570926Y-82665632D01*
X142356385Y-82879798D01*
X142240133Y-83159764D01*
X142239868Y-83462906D01*
X142355632Y-83743074D01*
X142494000Y-83881684D01*
X142494000Y-84510111D01*
X142423300Y-84439287D01*
X142143334Y-84323035D01*
X141840192Y-84322770D01*
X141560024Y-84438534D01*
X141478000Y-84520415D01*
X141478000Y-83119576D01*
X141615615Y-82982202D01*
X141731867Y-82702236D01*
X141732132Y-82399094D01*
X141616368Y-82118926D01*
X141402202Y-81904385D01*
X141122236Y-81788133D01*
X140819094Y-81787868D01*
X140538926Y-81903632D01*
X140324385Y-82117798D01*
X140208133Y-82397764D01*
X140207868Y-82700906D01*
X140323632Y-82981074D01*
X140462000Y-83119684D01*
X140462000Y-84266316D01*
X140386202Y-84190385D01*
X140106236Y-84074133D01*
X139803094Y-84073868D01*
X139522926Y-84189632D01*
X139308385Y-84403798D01*
X139192133Y-84683764D01*
X139191868Y-84986906D01*
X93371884Y-84986906D01*
X93169193Y-84827297D01*
X92557000Y-84655000D01*
X91567000Y-84655000D01*
X91313000Y-84655000D01*
X90323000Y-84655000D01*
X89710807Y-84827297D01*
X89211149Y-85220754D01*
X88900095Y-85775472D01*
X88869782Y-85901135D01*
X85546000Y-85901135D01*
X85546000Y-80290000D01*
X89071536Y-80290000D01*
X89071536Y-82270000D01*
X89098103Y-82411190D01*
X89181546Y-82540865D01*
X89308866Y-82627859D01*
X89460000Y-82658464D01*
X93420000Y-82658464D01*
X93561190Y-82631897D01*
X93690865Y-82548454D01*
X93777859Y-82421134D01*
X93808464Y-82270000D01*
X93808464Y-81176906D01*
X137921868Y-81176906D01*
X138037632Y-81457074D01*
X138251798Y-81671615D01*
X138531764Y-81787867D01*
X138834906Y-81788132D01*
X139115074Y-81672368D01*
X139253684Y-81534000D01*
X142494000Y-81534000D01*
X142493868Y-81684906D01*
X142609632Y-81965074D01*
X142823798Y-82179615D01*
X143103764Y-82295867D01*
X143406906Y-82296132D01*
X143687074Y-82180368D01*
X143901615Y-81966202D01*
X144017867Y-81686236D01*
X144018132Y-81383094D01*
X143902368Y-81102926D01*
X143688202Y-80888385D01*
X143408236Y-80772133D01*
X143212382Y-80771962D01*
X143107210Y-80666790D01*
X142942403Y-80556669D01*
X142748000Y-80518000D01*
X139253576Y-80518000D01*
X139116202Y-80380385D01*
X138836236Y-80264133D01*
X138533094Y-80263868D01*
X138252926Y-80379632D01*
X138038385Y-80593798D01*
X137922133Y-80873764D01*
X137921868Y-81176906D01*
X93808464Y-81176906D01*
X93808464Y-80290000D01*
X93781897Y-80148810D01*
X93698454Y-80019135D01*
X93571134Y-79932141D01*
X93420000Y-79901536D01*
X89460000Y-79901536D01*
X89318810Y-79928103D01*
X89189135Y-80011546D01*
X89102141Y-80138866D01*
X89071536Y-80290000D01*
X85546000Y-80290000D01*
X85546000Y-76327000D01*
X164697371Y-76327000D01*
X148615784Y-92408587D01*
M02*
