M48
;DRILL file {KiCad 4.0.6} date 11/20/17 19:21:54
;FORMAT={-:-/ absolute / inch / decimal}
FMAT,2
INCH,TZ
T1C0.015
T2C0.024
T3C0.025
T4C0.039
T5C0.052
T6C0.169
T7C0.039
T8C0.093
%
G90
G05
M72
T1
X3.77Y-3.83
X4.01Y-3.69
X4.0917Y-4.0109
X4.1878Y-3.7129
X4.34Y-3.69
X4.34Y-3.73
X4.34Y-3.86
X4.52Y-3.9
X4.52Y-3.96
X4.57Y-3.98
X4.65Y-4.45
X4.66Y-3.47
X4.7Y-3.66
X4.7Y-4.45
X5.05Y-3.7
X5.05Y-4.31
X5.1Y-3.5
X5.1Y-4.51
X5.39Y-3.73
X5.42Y-3.63
X5.45Y-3.67
X5.46Y-3.19
X5.48Y-3.76
X5.5084Y-4.0911
X5.51Y-3.34
X5.51Y-3.62
X5.54Y-4.07
X5.55Y-3.25
X5.55Y-3.63
X5.5902Y-3.3498
X5.6Y-3.93
X5.63Y-3.28
X5.64Y-3.21
X5.64Y-3.92
X5.67Y-3.95
X5.7Y-3.35
X5.7Y-3.4
X5.7Y-3.91
X5.73Y-4.43
X5.8Y-4.4
X5.81Y-4.14
X5.8493Y-3.6681
X5.87Y-3.7
X6.44Y-4.47
X6.5Y-3.6
X6.5Y-4.5
X6.85Y-3.72
X6.8852Y-3.3875
X6.9Y-3.6
T2
X3.473Y-2.45
X3.473Y-5.4
X3.5102Y-2.3602
X3.5102Y-2.5398
X3.5102Y-5.3102
X3.5102Y-5.4898
X3.6Y-2.323
X3.6Y-2.577
X3.6Y-5.273
X3.6Y-5.527
X3.6898Y-2.3602
X3.6898Y-2.5398
X3.6898Y-5.3102
X3.6898Y-5.4898
X3.727Y-2.45
X3.727Y-5.4
X6.573Y-2.45
X6.573Y-5.4
X6.6102Y-2.3602
X6.6102Y-2.5398
X6.6102Y-5.3102
X6.6102Y-5.4898
X6.7Y-2.323
X6.7Y-2.577
X6.7Y-5.273
X6.7Y-5.527
X6.7898Y-2.3602
X6.7898Y-2.5398
X6.7898Y-5.3102
X6.7898Y-5.4898
X6.827Y-2.45
X6.827Y-5.4
T3
X3.42Y-3.07
X3.69Y-4.78
X3.73Y-2.66
X3.91Y-3.85
X3.93Y-3.66
X4.Y-4.43
X4.05Y-3.04
X4.1Y-4.61
X4.44Y-4.45
X4.74Y-3.04
X4.8Y-4.61
X4.97Y-3.78
X5.44Y-3.04
X5.5Y-4.6
X6.01Y-3.73
X6.15Y-3.04
X6.2Y-4.6
T4
X6.85Y-2.75
X6.85Y-2.85
X6.85Y-2.95
X6.85Y-3.05
T5
X3.6Y-3.2
X3.6Y-3.3969
X3.6Y-3.7
X3.6Y-3.8969
X3.6Y-4.0937
X3.6Y-4.2906
T6
X3.6Y-2.45
X3.6Y-5.4
X6.7Y-2.45
X6.7Y-5.4
T7
X6.71Y-3.25
X6.75Y-3.45
X6.79Y-3.25
T8
X6.65Y-3.325
X6.65Y-3.45
X6.85Y-3.325
X6.85Y-3.45
T0
M30
