G04 #@! TF.FileFunction,Soldermask,Top*
%FSLAX46Y46*%
G04 Gerber Fmt 4.6, Leading zero omitted, Abs format (unit mm)*
G04 Created by KiCad (PCBNEW 4.0.6) date 11/20/17 19:22:43*
%MOMM*%
%LPD*%
G01*
G04 APERTURE LIST*
%ADD10C,0.100000*%
%ADD11R,0.800000X2.200000*%
%ADD12R,5.800000X6.400000*%
%ADD13R,1.250000X1.500000*%
%ADD14R,1.500000X1.250000*%
%ADD15R,3.500000X1.600000*%
%ADD16R,4.000000X2.500000*%
%ADD17R,0.800000X0.900000*%
%ADD18R,3.960000X1.980000*%
%ADD19O,3.960000X1.980000*%
%ADD20C,2.374900*%
%ADD21C,0.990600*%
%ADD22C,0.787400*%
%ADD23R,1.700000X1.700000*%
%ADD24O,1.700000X1.700000*%
%ADD25R,1.300000X1.500000*%
%ADD26R,1.500000X1.300000*%
%ADD27R,1.000000X1.000000*%
%ADD28R,1.500000X0.550000*%
%ADD29R,0.550000X1.500000*%
%ADD30R,2.000000X1.700000*%
%ADD31R,1.550000X0.600000*%
%ADD32C,8.600000*%
%ADD33C,0.900000*%
%ADD34C,1.270000*%
%ADD35C,0.762000*%
G04 APERTURE END LIST*
D10*
D11*
X107955000Y-94335000D03*
X109095000Y-94335000D03*
X111375000Y-94335000D03*
X112515000Y-94335000D03*
D12*
X110235000Y-88035000D03*
D13*
X151003000Y-97389000D03*
X151003000Y-94889000D03*
D14*
X90190000Y-68580000D03*
X92690000Y-68580000D03*
D15*
X94140000Y-73660000D03*
X88740000Y-73660000D03*
D14*
X92690000Y-127000000D03*
X90190000Y-127000000D03*
D16*
X88390000Y-119380000D03*
X94490000Y-119380000D03*
D14*
X106720000Y-101600000D03*
X109220000Y-101600000D03*
D17*
X103190000Y-79740000D03*
X105090000Y-79740000D03*
X104140000Y-77740000D03*
X103190000Y-120380000D03*
X105090000Y-120380000D03*
X104140000Y-118380000D03*
X120970000Y-79740000D03*
X122870000Y-79740000D03*
X121920000Y-77740000D03*
X120970000Y-120380000D03*
X122870000Y-120380000D03*
X121920000Y-118380000D03*
X138750000Y-79740000D03*
X140650000Y-79740000D03*
X139700000Y-77740000D03*
X138750000Y-120380000D03*
X140650000Y-120380000D03*
X139700000Y-118380000D03*
X156530000Y-79740000D03*
X158430000Y-79740000D03*
X157480000Y-77740000D03*
X156530000Y-120380000D03*
X158430000Y-120380000D03*
X157480000Y-118380000D03*
D18*
X91440000Y-81280000D03*
D19*
X91440000Y-86280000D03*
D18*
X91440000Y-93980000D03*
D19*
X91440000Y-98980000D03*
X91440000Y-108980000D03*
X91440000Y-103980000D03*
D20*
X173990000Y-87630000D03*
X168910000Y-87630000D03*
X168910000Y-84455000D03*
X173990000Y-84455000D03*
D21*
X170434000Y-82550000D03*
X172466000Y-82550000D03*
X171450000Y-87630000D03*
D22*
X172085000Y-86360000D03*
X170815000Y-86360000D03*
X172085000Y-85090000D03*
X170815000Y-85090000D03*
X172085000Y-83820000D03*
X170815000Y-83820000D03*
D23*
X173990000Y-69850000D03*
D24*
X173990000Y-72390000D03*
X173990000Y-74930000D03*
X173990000Y-77470000D03*
D25*
X133350000Y-81280000D03*
X133350000Y-78580000D03*
X153670000Y-81360000D03*
X153670000Y-78660000D03*
D26*
X165100000Y-116840000D03*
X162400000Y-116840000D03*
X129620000Y-119380000D03*
X126920000Y-119380000D03*
X165100000Y-119380000D03*
X162400000Y-119380000D03*
X170100000Y-91440000D03*
X172800000Y-91440000D03*
D25*
X115570000Y-81440000D03*
X115570000Y-78740000D03*
X151130000Y-81440000D03*
X151130000Y-78740000D03*
D26*
X111840000Y-119380000D03*
X109140000Y-119380000D03*
X147400000Y-119380000D03*
X144700000Y-119380000D03*
X104140000Y-91440000D03*
X101440000Y-91440000D03*
D25*
X101600000Y-110650000D03*
X101600000Y-107950000D03*
X101600000Y-102870000D03*
X101600000Y-105570000D03*
X114300000Y-113190000D03*
X114300000Y-110490000D03*
X114300000Y-105250000D03*
X114300000Y-107950000D03*
D26*
X144700000Y-116840000D03*
X147400000Y-116840000D03*
X109060000Y-116840000D03*
X111760000Y-116840000D03*
X126920000Y-77470000D03*
X129620000Y-77470000D03*
X162480000Y-77470000D03*
X165180000Y-77470000D03*
X126920000Y-80010000D03*
X129620000Y-80010000D03*
X162480000Y-80010000D03*
X165180000Y-80010000D03*
D25*
X135890000Y-119380000D03*
X135890000Y-116680000D03*
X100330000Y-119380000D03*
X100330000Y-116680000D03*
X153670000Y-119380000D03*
X153670000Y-116680000D03*
X118110000Y-119380000D03*
X118110000Y-116680000D03*
D26*
X126840000Y-116840000D03*
X129540000Y-116840000D03*
D27*
X104140000Y-68580000D03*
X104140000Y-129540000D03*
X121920000Y-68580000D03*
X121920000Y-129540000D03*
X139700000Y-68580000D03*
X139700000Y-129540000D03*
X157480000Y-68580000D03*
X157480000Y-129540000D03*
D28*
X135016000Y-92139000D03*
X135016000Y-92939000D03*
X135016000Y-93739000D03*
X135016000Y-94539000D03*
X135016000Y-95339000D03*
X135016000Y-96139000D03*
X135016000Y-96939000D03*
X135016000Y-97739000D03*
X135016000Y-98539000D03*
X135016000Y-99339000D03*
X135016000Y-100139000D03*
D29*
X136716000Y-101839000D03*
X137516000Y-101839000D03*
X138316000Y-101839000D03*
X139116000Y-101839000D03*
X139916000Y-101839000D03*
X140716000Y-101839000D03*
X141516000Y-101839000D03*
X142316000Y-101839000D03*
X143116000Y-101839000D03*
X143916000Y-101839000D03*
X144716000Y-101839000D03*
D28*
X146416000Y-100139000D03*
X146416000Y-99339000D03*
X146416000Y-98539000D03*
X146416000Y-97739000D03*
X146416000Y-96939000D03*
X146416000Y-96139000D03*
X146416000Y-95339000D03*
X146416000Y-94539000D03*
X146416000Y-93739000D03*
X146416000Y-92939000D03*
X146416000Y-92139000D03*
D29*
X144716000Y-90439000D03*
X143916000Y-90439000D03*
X143116000Y-90439000D03*
X142316000Y-90439000D03*
X141516000Y-90439000D03*
X140716000Y-90439000D03*
X139916000Y-90439000D03*
X139116000Y-90439000D03*
X138316000Y-90439000D03*
X137516000Y-90439000D03*
X136716000Y-90439000D03*
D13*
X130302000Y-97790000D03*
X130302000Y-95290000D03*
D26*
X109140000Y-77470000D03*
X111840000Y-77470000D03*
X144700000Y-77470000D03*
X147400000Y-77470000D03*
X109140000Y-80010000D03*
X111840000Y-80010000D03*
X144700000Y-80010000D03*
X147400000Y-80010000D03*
X101440000Y-88900000D03*
X104140000Y-88900000D03*
D30*
X105410000Y-97790000D03*
X101410000Y-97790000D03*
D31*
X105250000Y-104775000D03*
X105250000Y-106045000D03*
X105250000Y-107315000D03*
X105250000Y-108585000D03*
X110650000Y-108585000D03*
X110650000Y-107315000D03*
X110650000Y-106045000D03*
X110650000Y-104775000D03*
D32*
X91440000Y-62230000D03*
D33*
X94665000Y-62230000D03*
X93720419Y-64510419D03*
X91440000Y-65455000D03*
X89159581Y-64510419D03*
X88215000Y-62230000D03*
X89159581Y-59949581D03*
X91440000Y-59005000D03*
X93720419Y-59949581D03*
D32*
X91440000Y-137160000D03*
D33*
X94665000Y-137160000D03*
X93720419Y-139440419D03*
X91440000Y-140385000D03*
X89159581Y-139440419D03*
X88215000Y-137160000D03*
X89159581Y-134879581D03*
X91440000Y-133935000D03*
X93720419Y-134879581D03*
D32*
X170180000Y-62230000D03*
D33*
X173405000Y-62230000D03*
X172460419Y-64510419D03*
X170180000Y-65455000D03*
X167899581Y-64510419D03*
X166955000Y-62230000D03*
X167899581Y-59949581D03*
X170180000Y-59005000D03*
X172460419Y-59949581D03*
D32*
X170180000Y-137160000D03*
D33*
X173405000Y-137160000D03*
X172460419Y-139440419D03*
X170180000Y-140385000D03*
X167899581Y-139440419D03*
X166955000Y-137160000D03*
X167899581Y-134879581D03*
X170180000Y-133935000D03*
X172460419Y-134879581D03*
D34*
X94742000Y-67564000D03*
X101600000Y-112522000D03*
X112776000Y-113030000D03*
X157480000Y-116840000D03*
X139700000Y-116840000D03*
X121920000Y-117094000D03*
X104140000Y-117094000D03*
X156210000Y-77216000D03*
X138176000Y-77216000D03*
X120396000Y-77216000D03*
X102870000Y-77216000D03*
X126238000Y-96012000D03*
X152654000Y-94742000D03*
X99314000Y-97790000D03*
X99822000Y-92964000D03*
X93726000Y-121412000D03*
X86868000Y-77978000D03*
D35*
X174885082Y-86042499D03*
X138684000Y-81026000D03*
X143256000Y-81534000D03*
X114808000Y-99060000D03*
X114808000Y-100584000D03*
X173990000Y-94488000D03*
X147574000Y-105156000D03*
X165100000Y-91440000D03*
X140716000Y-103378000D03*
X139912896Y-103913403D03*
X175260000Y-91440000D03*
X148572242Y-93170549D03*
X149098000Y-93980000D03*
X143256000Y-99568000D03*
X143002000Y-83312000D03*
X144780000Y-99314000D03*
X144780000Y-86360000D03*
X138430000Y-93218000D03*
X165100000Y-114300000D03*
X128270000Y-93980000D03*
X128270000Y-109474000D03*
X139192000Y-95504000D03*
X163576000Y-113538000D03*
X141991098Y-85084902D03*
X142240000Y-99822000D03*
X144018000Y-100330000D03*
X144780000Y-85090000D03*
X119380000Y-92964000D03*
X119380000Y-113030000D03*
X136906000Y-94742000D03*
X145542000Y-112522000D03*
X137668000Y-92202000D03*
X147320000Y-111760000D03*
X118364000Y-88138000D03*
X118110000Y-113030000D03*
X139954000Y-91948000D03*
X139954000Y-84836000D03*
X129540000Y-88900000D03*
X129540000Y-114554000D03*
X110236000Y-94742000D03*
X110236000Y-98044000D03*
X95758000Y-97282000D03*
X101854000Y-93726000D03*
X103929176Y-101875781D03*
X116078000Y-101092000D03*
X106371092Y-94306975D03*
X110236000Y-93726000D03*
X140970000Y-92202000D03*
X140970000Y-82550000D03*
M02*
